<?xml version="1.0" encoding="UTF-8"?> <svg xmlns="http://www.w3.org/2000/svg" xmlns:xlink="http://www.w3.org/1999/xlink" fill="none" height="122" viewBox="0 0 330 122" width="330"><filter id="a" color-interpolation-filters="sRGB" filterUnits="userSpaceOnUse" height="120" width="330" x="0" y="2"><feFlood flood-opacity="0" result="BackgroundImageFix"></feFlood><feColorMatrix in="SourceAlpha" result="hardAlpha" type="matrix" values="0 0 0 0 0 0 0 0 0 0 0 0 0 0 0 0 0 0 127 0"></feColorMatrix><feOffset dy="2"></feOffset><feGaussianBlur stdDeviation="10"></feGaussianBlur><feComposite in2="hardAlpha" operator="out"></feComposite><feColorMatrix type="matrix" values="0 0 0 0 1 0 0 0 0 0.831373 0 0 0 0 0.0352941 0 0 0 0.4 0"></feColorMatrix><feBlend in2="BackgroundImageFix" mode="normal" result="effect1_dropShadow_316_6751"></feBlend><feBlend in="SourceGraphic" in2="effect1_dropShadow_316_6751" mode="normal" result="shape"></feBlend><feColorMatrix in="SourceAlpha" result="hardAlpha" type="matrix" values="0 0 0 0 0 0 0 0 0 0 0 0 0 0 0 0 0 0 127 0"></feColorMatrix><feOffset dy="8"></feOffset><feGaussianBlur stdDeviation="6"></feGaussianBlur><feComposite in2="hardAlpha" k2="-1" k3="1" operator="arithmetic"></feComposite><feColorMatrix type="matrix" values="0 0 0 0 1 0 0 0 0 1 0 0 0 0 1 0 0 0 0.3 0"></feColorMatrix><feBlend in2="shape" mode="normal" result="effect2_innerShadow_316_6751"></feBlend></filter><linearGradient id="b" gradientUnits="userSpaceOnUse" x1="42" x2="165" y1="4.49999" y2="117"><stop offset="0" stop-color="#ffd409"></stop><stop offset="1" stop-color="#ffd409" stop-opacity="0"></stop></linearGradient><g filter="url(#a)"><rect fill="#ffd409" height="80" rx="40" shape-rendering="crispEdges" width="290" x="20" y="20"></rect><path d="m65.9071 65.5v-11.2h4.44c.8106 0 1.5173.136 2.12.408.608.2667 1.0746.6533 1.4 1.16.3306.5067.496 1.112.496 1.816 0 .5547-.1094 1.0427-.328 1.464-.2187.416-.52.7627-.904 1.04-.3787.2773-.816.4773-1.312.6l3.136 4.712h-2.824l-2.696-4.256h-1.16v4.256zm2.368-6.168h1.76c.608 0 1.0826-.1227 1.424-.368.3466-.2507.52-.6293.52-1.136 0-.5227-.16-.9147-.48-1.176-.3147-.2613-.776-.392-1.384-.392h-1.84zm12.051 6.408c-.88 0-1.6534-.1787-2.32-.536-.6667-.3573-1.1867-.856-1.56-1.496-.3734-.64-.56-1.3893-.56-2.248 0-.624.1066-1.1973.32-1.72.2186-.5227.5226-.9733.912-1.352.3946-.384.856-.68 1.384-.888.5333-.2133 1.1173-.32 1.752-.32.6986 0 1.3173.1227 1.856.368.544.2453.9946.5893 1.352 1.032.3573.4373.6053.952.744 1.544.144.592.1573 1.2347.04 1.928h-6.192c0 .3733.096.6987.288.976.1973.2773.472.496.824.656.3573.1547.7733.232 1.248.232.4693 0 .9173-.064 1.344-.192.4266-.128.8293-.3227 1.208-.584l.776 1.6c-.256.1973-.576.3733-.96.528-.384.1493-.792.264-1.224.344-.4267.0853-.8374.128-1.232.128zm-2.136-5.296h3.816c-.016-.4747-.184-.8507-.504-1.128-.3147-.2773-.7494-.416-1.304-.416-.5547 0-1.016.1387-1.384.416-.3627.2773-.5707.6533-.624 1.128zm13.7807 8.416v-5.176l.52.536c-.368.4907-.808.8667-1.32 1.128-.5067.2613-1.088.392-1.744.392-.7947 0-1.4987-.1893-2.112-.568s-1.0933-.8907-1.44-1.536c-.3467-.6507-.52-1.376-.52-2.176 0-.6347.0987-1.2133.296-1.736.2027-.5227.4853-.9733.848-1.352.3627-.384.7893-.6773 1.28-.88.4907-.208 1.0267-.312 1.608-.312.528 0 1 .0747 1.416.224.4213.1493.7813.3573 1.08.624.2987.2613.5333.5653.704.912l-.32.528v-2.048h2.032v11.44zm-2.152-5.144c.416 0 .7867-.0907 1.112-.272.3253-.1867.5787-.448.76-.784.1867-.336.28-.736.28-1.2s-.0933-.864-.28-1.2-.4427-.5947-.768-.776c-.3253-.1867-.6933-.28-1.104-.28-.416 0-.7867.0933-1.112.28-.3253.1813-.5813.44-.768.776s-.28.736-.28 1.2.0933.864.28 1.2.4427.5973.768.784c.3253.1813.696.272 1.112.272zm9.8989 2.024c-.7307 0-1.336-.144-1.816-.432-.4747-.288-.8293-.6827-1.064-1.184s-.352-1.0693-.352-1.704v-5h2.336v4.624c0 .48.1307.8613.392 1.144.2667.2827.648.424 1.1443.424.32 0 .602-.0693.848-.208.245-.144.434-.344.568-.6.138-.256.208-.552.208-.888v-4.496h2.336v8.08h-2.032v-.888c-.278.32-.622.5893-1.032.808-.406.2133-.918.32-1.5363.32zm10.6553 0c-.88 0-1.653-.1787-2.32-.536s-1.187-.856-1.56-1.496-.56-1.3893-.56-2.248c0-.624.107-1.1973.32-1.72.219-.5227.523-.9733.912-1.352.395-.384.856-.68 1.384-.888.533-.2133 1.117-.32 1.752-.32.699 0 1.317.1227 1.856.368.544.2453.995.5893 1.352 1.032.357.4373.605.952.744 1.544.144.592.157 1.2347.04 1.928h-6.192c0 .3733.096.6987.288.976.197.2773.472.496.824.656.357.1547.773.232 1.248.232.469 0 .917-.064 1.344-.192s.829-.3227 1.208-.584l.776 1.6c-.256.1973-.576.3733-.96.528-.384.1493-.792.264-1.224.344-.427.0853-.837.128-1.232.128zm-2.136-5.296h3.816c-.016-.4747-.184-.8507-.504-1.128-.315-.2773-.749-.416-1.304-.416s-1.016.1387-1.384.416c-.363.2773-.571.6533-.624 1.128zm10.679 5.288c-.72 0-1.384-.0933-1.992-.28-.608-.192-1.128-.4533-1.56-.784l.76-1.632c.421.288.877.5147 1.368.68.49.16.962.24 1.416.24.448 0 .792-.0667 1.032-.2.245-.1387.368-.336.368-.592 0-.2293-.11-.3973-.328-.504-.214-.112-.63-.232-1.248-.36-1.067-.192-1.846-.4933-2.336-.904-.491-.416-.736-.9867-.736-1.712 0-.512.141-.9627.424-1.352.288-.3893.682-.6907 1.184-.904.501-.2187 1.077-.328 1.728-.328.64 0 1.242.088 1.808.264.57.1707 1.058.4107 1.464.72l-.736 1.64c-.214-.1707-.459-.32-.736-.448-.272-.128-.56-.2267-.864-.296-.299-.0747-.592-.112-.88-.112-.39 0-.704.0667-.944.2-.24.128-.36.3093-.36.544s.109.408.328.52c.218.112.626.2347 1.224.368 1.114.2347 1.906.5467 2.376.936.474.384.712.9253.712 1.624 0 .5387-.147 1.008-.44 1.408-.288.4-.694.712-1.216.936-.518.2187-1.123.328-1.816.328zm8.779.008c-.864 0-1.547-.2427-2.048-.728-.496-.4907-.744-1.2293-.744-2.216v-7.704h2.336v2.328h2.008v1.872h-2.008v3.08c0 .4747.098.808.296 1 .197.192.461.288.792.288.17 0 .336-.0187.496-.056.165-.0427.317-.1013.456-.176l.328 1.84c-.24.1333-.528.2453-.864.336-.331.0907-.68.136-1.048.136zm-4.432-6.448v-1.872h1.872v1.872zm14.027 6.448c-.544 0-1.029-.104-1.456-.312-.426-.208-.762-.504-1.008-.888-.245-.3893-.368-.8533-.368-1.392 0-.4587.115-.8667.344-1.224.23-.3573.576-.6507 1.04-.88.47-.2347 1.062-.392 1.776-.472.72-.0853 1.568-.08 2.544.016l.024 1.488c-.581-.096-1.096-.1413-1.544-.136-.442.0053-.816.0507-1.12.136-.298.0853-.525.2107-.68.376-.154.16-.232.3547-.232.584 0 .3147.118.5573.352.728.235.1653.552.248.952.248.347 0 .659-.0613.936-.184.278-.1227.499-.3013.664-.536.166-.2347.248-.52.248-.856v-1.936c0-.3147-.066-.5893-.2-.824-.128-.24-.33-.424-.608-.552-.277-.1333-.64-.2-1.088-.2-.416 0-.832.064-1.248.192-.41.1227-.786.312-1.128.568l-.616-1.632c.518-.3307 1.067-.5707 1.648-.72.582-.1547 1.15-.232 1.704-.232.758 0 1.419.12 1.984.36.566.24 1.003.6107 1.312 1.112.315.496.472 1.128.472 1.896v5.032h-2.032v-.888c-.266.3627-.632.6427-1.096.84-.464.192-.989.288-1.576.288zm10.867-.24v-11.2h4.344c.821 0 1.549.144 2.184.432.635.2827 1.133.696 1.496 1.24.363.5387.544 1.1867.544 1.944 0 .7733-.168 1.4293-.504 1.968-.336.5333-.824.9413-1.464 1.224-.635.2773-1.405.416-2.312.416h-1.92v3.976zm2.368-5.968h1.88c.613 0 1.091-.1253 1.432-.376.347-.2507.52-.648.52-1.192 0-.5493-.176-.9573-.528-1.224s-.821-.4-1.408-.4h-1.896zm11.348 6.208c-.88 0-1.653-.1787-2.32-.536s-1.187-.856-1.56-1.496-.56-1.3893-.56-2.248c0-.624.107-1.1973.32-1.72.219-.5227.523-.9733.912-1.352.395-.384.856-.68 1.384-.888.533-.2133 1.117-.32 1.752-.32.699 0 1.317.1227 1.856.368.544.2453.995.5893 1.352 1.032.357.4373.605.952.744 1.544.144.592.157 1.2347.04 1.928h-6.192c0 .3733.096.6987.288.976.197.2773.472.496.824.656.357.1547.773.232 1.248.232.469 0 .917-.064 1.344-.192s.829-.3227 1.208-.584l.776 1.6c-.256.1973-.576.3733-.96.528-.384.1493-.792.264-1.224.344-.427.0853-.837.128-1.232.128zm-2.136-5.296h3.816c-.016-.4747-.184-.8507-.504-1.128-.315-.2773-.749-.416-1.304-.416s-1.016.1387-1.384.416c-.363.2773-.571.6533-.624 1.128zm7.751 5.056v-8.08h2.336v1c.261-.448.597-.768 1.008-.96.41-.192.858-.288 1.344-.288.17 0 .328.0107.472.032.144.016.285.0373.424.064l-.288 2.408c-.171-.064-.352-.112-.544-.144-.192-.0373-.382-.056-.568-.056-.539 0-.982.1573-1.328.472-.347.3147-.52.7627-.52 1.344v4.208zm9.849.232c-.72 0-1.384-.0933-1.992-.28-.608-.192-1.128-.4533-1.56-.784l.76-1.632c.422.288.878.5147 1.368.68.491.16.963.24 1.416.24.448 0 .792-.0667 1.032-.2.246-.1387.368-.336.368-.592 0-.2293-.109-.3973-.328-.504-.213-.112-.629-.232-1.248-.36-1.066-.192-1.845-.4933-2.336-.904-.49-.416-.736-.9867-.736-1.712 0-.512.142-.9627.424-1.352.288-.3893.683-.6907 1.184-.904.502-.2187 1.078-.328 1.728-.328.64 0 1.243.088 1.808.264.571.1707 1.059.4107 1.464.72l-.736 1.64c-.213-.1707-.458-.32-.736-.448-.272-.128-.56-.2267-.864-.296-.298-.0747-.592-.112-.88-.112-.389 0-.704.0667-.944.2-.24.128-.36.3093-.36.544s.11.408.328.52c.219.112.627.2347 1.224.368 1.115.2347 1.907.5467 2.376.936.475.384.712.9253.712 1.624 0 .5387-.146 1.008-.44 1.408-.288.4-.693.712-1.216.936-.517.2187-1.122.328-1.816.328zm9.076.008c-.87 0-1.64-.1947-2.312-.584s-1.2-.9067-1.584-1.552c-.379-.6507-.568-1.3653-.568-2.144 0-.5707.109-1.112.328-1.624.218-.5173.528-.9733.928-1.368.4-.4.872-.7147 1.416-.944s1.141-.344 1.792-.344c.869 0 1.637.1947 2.304.584.672.3893 1.197.9093 1.576 1.56.384.6453.576 1.3573.576 2.136 0 .5653-.11 1.1067-.328 1.624-.219.5173-.528.976-.928 1.376-.395.3947-.864.7067-1.408.936s-1.142.344-1.792.344zm0-2.024c.41 0 .778-.0907 1.104-.272.325-.1867.581-.448.768-.784.186-.3413.28-.7413.28-1.2 0-.464-.094-.864-.28-1.2-.182-.336-.435-.5947-.76-.776-.326-.1867-.696-.28-1.112-.28s-.79.0933-1.12.28c-.326.1813-.582.44-.768.776-.182.336-.272.736-.272 1.2s.093.864.28 1.2c.186.336.442.5973.768.784.325.1813.696.272 1.112.272zm6.059 1.784v-8.08h2.336v.912c.309-.4053.675-.6987 1.096-.88.427-.1813.872-.272 1.336-.272.752 0 1.371.1493 1.856.448.491.2933.853.6747 1.088 1.144.24.4693.36.9627.36 1.48v5.248h-2.336v-4.52c0-.512-.144-.92-.432-1.224-.283-.304-.693-.456-1.232-.456-.341 0-.643.0773-.904.232-.261.1493-.467.36-.616.632-.144.272-.216.5867-.216.944v4.392zm12.522.24c-.544 0-1.03-.104-1.456-.312-.427-.208-.763-.504-1.008-.888-.246-.3893-.368-.8533-.368-1.392 0-.4587.114-.8667.344-1.224.229-.3573.576-.6507 1.04-.88.469-.2347 1.061-.392 1.776-.472.72-.0853 1.568-.08 2.544.016l.024 1.488c-.582-.096-1.096-.1413-1.544-.136-.443.0053-.816.0507-1.12.136-.299.0853-.526.2107-.68.376-.155.16-.232.3547-.232.584 0 .3147.117.5573.352.728.234.1653.552.248.952.248.346 0 .658-.0613.936-.184.277-.1227.498-.3013.664-.536.165-.2347.248-.52.248-.856v-1.936c0-.3147-.067-.5893-.2-.824-.128-.24-.331-.424-.608-.552-.278-.1333-.64-.2-1.088-.2-.416 0-.832.064-1.248.192-.411.1227-.787.312-1.128.568l-.616-1.632c.517-.3307 1.066-.5707 1.648-.72.581-.1547 1.149-.232 1.704-.232.757 0 1.418.12 1.984.36.565.24 1.002.6107 1.312 1.112.314.496.472 1.128.472 1.896v5.032h-2.032v-.888c-.267.3627-.632.6427-1.096.84-.464.192-.99.288-1.576.288zm6.869-.24v-11.52h2.336v11.52zm8.607 0v-11.2h3.728c1.141 0 2.146.2373 3.016.712.874.4747 1.554 1.1333 2.04 1.976.49.8427.736 1.816.736 2.92 0 .8213-.142 1.576-.424 2.264-.278.688-.672 1.28-1.184 1.776-.512.4907-1.123.872-1.832 1.144-.71.272-1.494.408-2.352.408zm2.368-2.208h1.192c.522 0 .994-.072 1.416-.216.426-.1493.794-.3707 1.104-.664.309-.2933.546-.648.712-1.064.165-.4213.248-.9013.248-1.44 0-.7253-.147-1.3413-.44-1.848-.288-.5067-.694-.8933-1.216-1.16-.523-.2667-1.131-.4-1.824-.4h-1.192zm12.738 2.448c-.88 0-1.653-.1787-2.32-.536s-1.187-.856-1.56-1.496-.56-1.3893-.56-2.248c0-.624.107-1.1973.32-1.72.219-.5227.523-.9733.912-1.352.395-.384.856-.68 1.384-.888.533-.2133 1.117-.32 1.752-.32.699 0 1.317.1227 1.856.368.544.2453.995.5893 1.352 1.032.357.4373.605.952.744 1.544.144.592.157 1.2347.04 1.928h-6.192c0 .3733.096.6987.288.976.197.2773.472.496.824.656.357.1547.773.232 1.248.232.469 0 .917-.064 1.344-.192s.829-.3227 1.208-.584l.776 1.6c-.256.1973-.576.3733-.96.528-.384.1493-.792.264-1.224.344-.427.0853-.837.128-1.232.128zm-2.136-5.296h3.816c-.016-.4747-.184-.8507-.504-1.128-.315-.2773-.749-.416-1.304-.416s-1.016.1387-1.384.416c-.363.2773-.571.6533-.624 1.128zm7.751 5.056v-8.08h2.336v1.04c.202-.288.437-.5253.704-.712.272-.192.56-.3333.864-.424.309-.096.618-.144.928-.144.613 0 1.136.1387 1.568.416.437.272.738.632.904 1.08.341-.5333.778-.9147 1.312-1.144.533-.2347 1.09-.352 1.672-.352.773 0 1.384.1493 1.832.448.448.2933.765.6747.952 1.144.192.4693.288.9627.288 1.48v5.248h-2.336v-4.576c0-.4853-.131-.8773-.392-1.176-.256-.2987-.635-.448-1.136-.448-.315 0-.598.0693-.848.208-.251.1387-.448.3253-.592.56-.139.2293-.208.4933-.208.792v4.64h-2.336v-4.576c0-.4853-.131-.8773-.392-1.176-.262-.2987-.64-.448-1.136-.448-.32 0-.606.0693-.856.208-.246.1387-.44.3253-.584.56-.139.2293-.208.4933-.208.792v4.64zm19.347.24c-.87 0-1.64-.1947-2.312-.584s-1.2-.9067-1.584-1.552c-.379-.6507-.568-1.3653-.568-2.144 0-.5707.109-1.112.328-1.624.218-.5173.528-.9733.928-1.368.4-.4.872-.7147 1.416-.944s1.141-.344 1.792-.344c.869 0 1.637.1947 2.304.584.672.3893 1.197.9093 1.576 1.56.384.6453.576 1.3573.576 2.136 0 .5653-.11 1.1067-.328 1.624-.219.5173-.528.976-.928 1.376-.395.3947-.864.7067-1.408.936s-1.142.344-1.792.344zm0-2.024c.41 0 .778-.0907 1.104-.272.325-.1867.581-.448.768-.784.186-.3413.28-.7413.28-1.2 0-.464-.094-.864-.28-1.2-.182-.336-.435-.5947-.76-.776-.326-.1867-.696-.28-1.112-.28s-.79.0933-1.12.28c-.326.1813-.582.44-.768.776-.182.336-.272.736-.272 1.2s.093.864.28 1.2c.186.336.442.5973.768.784.325.1813.696.272 1.112.272z" fill="#1a1a18"></path></g><path d="m.5 58.5c0-32.0325 25.9675-58 58-58h213c32.033 0 58 25.9675 58 58s-25.967 58-58 58h-83-130c-32.0325 0-58-25.9675-58-58z" stroke="url(#b)"></path></svg> 