<?xml version="1.0" encoding="UTF-8"?> <svg xmlns="http://www.w3.org/2000/svg" xmlns:xlink="http://www.w3.org/1999/xlink" fill="none" height="90" viewBox="0 0 343 90" width="343"><filter id="a" color-interpolation-filters="sRGB" filterUnits="userSpaceOnUse" height="90" width="343" x="0" y="0"><feFlood flood-opacity="0" result="BackgroundImageFix"></feFlood><feColorMatrix in="SourceAlpha" result="hardAlpha" type="matrix" values="0 0 0 0 0 0 0 0 0 0 0 0 0 0 0 0 0 0 127 0"></feColorMatrix><feOffset dy="2"></feOffset><feGaussianBlur stdDeviation="10"></feGaussianBlur><feComposite in2="hardAlpha" operator="out"></feComposite><feColorMatrix type="matrix" values="0 0 0 0 0.0313726 0 0 0 0 0.815686 0 0 0 0 0.439216 0 0 0 0.4 0"></feColorMatrix><feBlend in2="BackgroundImageFix" mode="normal" result="effect1_dropShadow_317_2303"></feBlend><feBlend in="SourceGraphic" in2="effect1_dropShadow_317_2303" mode="normal" result="shape"></feBlend><feColorMatrix in="SourceAlpha" result="hardAlpha" type="matrix" values="0 0 0 0 0 0 0 0 0 0 0 0 0 0 0 0 0 0 127 0"></feColorMatrix><feOffset dy="8"></feOffset><feGaussianBlur stdDeviation="6"></feGaussianBlur><feComposite in2="hardAlpha" k2="-1" k3="1" operator="arithmetic"></feComposite><feColorMatrix type="matrix" values="0 0 0 0 1 0 0 0 0 1 0 0 0 0 1 0 0 0 0.3 0"></feColorMatrix><feBlend in2="shape" mode="normal" result="effect2_innerShadow_317_2303"></feBlend></filter><linearGradient id="b" gradientUnits="userSpaceOnUse" x1=".000007" x2="254.094" y1="4.15094" y2="187.13"><stop offset="0" stop-color="#fe8a04"></stop><stop offset="1" stop-color="#fe8a04" stop-opacity="0"></stop></linearGradient><g filter="url(#a)"><rect fill="#fe8a04" height="50" rx="25" shape-rendering="crispEdges" width="303" x="20" y="18"></rect><path d="m114.004 48v-9.8h2.072v7.903h4.046v1.897zm10.887.21c-.76 0-1.435-.1703-2.023-.511s-1.05-.7933-1.386-1.358c-.331-.5693-.497-1.1947-.497-1.876 0-.4993.096-.973.287-1.421.192-.4527.462-.8517.812-1.197.35-.35.763-.6253 1.239-.826s.999-.301 1.568-.301c.761 0 1.433.1703 2.016.511.588.3407 1.048.7957 1.379 1.365.336.5647.504 1.1877.504 1.869 0 .4947-.095.9683-.287 1.421-.191.4527-.462.854-.812 1.204-.345.3453-.756.6183-1.232.819s-.998.301-1.568.301zm0-1.771c.36 0 .682-.0793.966-.238.285-.1633.509-.392.672-.686.164-.2987.245-.6487.245-1.05 0-.406-.081-.756-.245-1.05-.158-.294-.38-.5203-.665-.679-.284-.1633-.609-.245-.973-.245s-.69.0817-.98.245c-.284.1587-.508.385-.672.679-.158.294-.238.644-.238 1.05s.082.756.245 1.05c.164.294.388.5227.672.686.285.1587.609.238.973.238zm8.696 1.771c-.761 0-1.435-.1703-2.023-.511s-1.05-.7933-1.386-1.358c-.332-.5693-.497-1.1947-.497-1.876 0-.4993.095-.973.287-1.421.191-.4527.462-.8517.812-1.197.35-.35.763-.6253 1.239-.826s.998-.301 1.568-.301c.76 0 1.432.1703 2.016.511.588.3407 1.047.7957 1.379 1.365.336.5647.504 1.1877.504 1.869 0 .4947-.096.9683-.287 1.421-.192.4527-.462.854-.812 1.204-.346.3453-.756.6183-1.232.819s-.999.301-1.568.301zm0-1.771c.359 0 .681-.0793.966-.238.284-.1633.508-.392.672-.686.163-.2987.245-.6487.245-1.05 0-.406-.082-.756-.245-1.05-.159-.294-.381-.5203-.665-.679-.285-.1633-.609-.245-.973-.245s-.691.0817-.98.245c-.285.1587-.509.385-.672.679-.159.294-.238.644-.238 1.05s.081.756.245 1.05c.163.294.387.5227.672.686.284.1587.609.238.973.238zm5.302 1.561v-10.08h2.044v5.53l2.338-2.52h2.38l-2.478 2.807 2.751 4.263h-2.429l-1.806-2.926-.756.784v2.142zm10.615 0 3.71-9.8h2.359l3.766 9.8h-2.331l-.763-2.1h-3.731l-.742 2.1zm3.5-3.85h2.737l-1.386-3.682zm10.06 4.06c-.756 0-1.353-.2123-1.792-.637-.434-.4293-.651-1.0757-.651-1.939v-6.741h2.044v2.037h1.757v1.638h-1.757v2.695c0 .4153.086.707.259.875s.404.252.693.252c.149 0 .294-.0163.434-.049.145-.0373.278-.0887.399-.154l.287 1.61c-.21.1167-.462.2147-.756.294-.289.0793-.595.119-.917.119zm-3.878-5.642v-1.638h1.638v1.638zm9.39 5.432 3.71-9.8h2.359l3.766 9.8h-2.331l-.763-2.1h-3.731l-.742 2.1zm3.5-3.85h2.737l-1.386-3.682zm7.418 3.85v-10.08h2.044v10.08zm4.033 0v-10.08h2.044v10.08zm12.039.21c-1.012 0-1.904-.2077-2.674-.623-.77-.42-1.369-1.0103-1.799-1.771-.429-.7653-.644-1.6637-.644-2.695 0-.7513.126-1.4397.378-2.065s.609-1.1667 1.071-1.624c.462-.462 1.006-.8167 1.631-1.064.63-.252 1.319-.378 2.065-.378.794 0 1.466.1003 2.016.301.551.2007 1.046.483 1.484.847l-1.05 1.701c-.284-.28-.623-.49-1.015-.63-.387-.14-.819-.21-1.295-.21-.485 0-.921.0723-1.309.217-.382.1447-.709.3523-.98.623-.266.266-.471.5903-.616.973-.14.378-.21.805-.21 1.281 0 .6533.126 1.211.378 1.673.257.4573.621.8097 1.092 1.057.476.2473 1.043.371 1.701.371.458 0 .906-.07 1.344-.21.444-.14.861-.364 1.253-.672l.952 1.743c-.462.3547-1.003.637-1.624.847-.62.2053-1.337.308-2.149.308zm7.039 0c-.476 0-.901-.091-1.274-.273-.374-.182-.668-.441-.882-.777-.215-.3407-.322-.7467-.322-1.218 0-.4013.1-.7583.301-1.071.2-.3127.504-.5693.91-.77.41-.2053.928-.343 1.554-.413.63-.0747 1.372-.07 2.226.014l.021 1.302c-.509-.084-.959-.1237-1.351-.119-.388.0047-.714.0443-.98.119-.262.0747-.46.1843-.595.329-.136.14-.203.3103-.203.511 0 .2753.102.4877.308.637.205.1447.483.217.833.217.303 0 .576-.0537.819-.161.242-.1073.436-.2637.581-.469.144-.2053.217-.455.217-.749v-1.694c0-.2753-.059-.5157-.175-.721-.112-.21-.29-.371-.532-.483-.243-.1167-.56-.175-.952-.175-.364 0-.728.056-1.092.168-.36.1073-.689.273-.987.497l-.539-1.428c.452-.2893.933-.4993 1.442-.63.508-.1353 1.005-.203 1.491-.203.662 0 1.241.105 1.736.315.494.21.877.5343 1.148.973.275.434.413.987.413 1.659v4.403h-1.778v-.777c-.234.3173-.553.5623-.959.735-.406.168-.866.252-1.379.252zm8.572-.007c-.63 0-1.211-.0817-1.743-.245-.532-.168-.987-.3967-1.365-.686l.665-1.428c.369.252.768.4503 1.197.595.429.14.842.21 1.239.21.392 0 .693-.0583.903-.175.215-.1213.322-.294.322-.518 0-.2007-.096-.3477-.287-.441-.187-.098-.551-.203-1.092-.315-.933-.168-1.615-.4317-2.044-.791-.429-.364-.644-.8633-.644-1.498 0-.448.124-.8423.371-1.183.252-.3407.597-.6043 1.036-.791.439-.1913.943-.287 1.512-.287.56 0 1.087.077 1.582.231.499.1493.926.3593 1.281.63l-.644 1.435c-.187-.1493-.401-.28-.644-.392-.238-.112-.49-.1983-.756-.259-.261-.0653-.518-.098-.77-.098-.341 0-.616.0583-.826.175-.21.112-.315.2707-.315.476s.096.357.287.455.548.2053 1.071.322c.975.2053 1.668.4783 2.079.819.415.336.623.8097.623 1.421 0 .4713-.128.882-.385 1.232-.252.35-.607.623-1.064.819-.453.1913-.982.287-1.589.287zm7.92.007c-.77 0-1.447-.1563-2.03-.469-.584-.3127-1.039-.749-1.365-1.309-.327-.56-.49-1.2157-.49-1.967 0-.546.093-1.0477.28-1.505.191-.4573.457-.8517.798-1.183.345-.336.749-.595 1.211-.777.466-.1867.977-.28 1.533-.28.611 0 1.152.1073 1.624.322.476.2147.87.5157 1.183.903.312.3827.529.833.651 1.351.126.518.137 1.0803.035 1.687h-5.418c0 .3267.084.6113.252.854.172.2427.413.434.721.574.312.1353.676.203 1.092.203.41 0 .802-.056 1.176-.168.373-.112.725-.2823 1.057-.511l.679 1.4c-.224.1727-.504.3267-.84.462-.336.1307-.693.231-1.071.301-.374.0747-.733.112-1.078.112zm-1.869-4.634h3.339c-.014-.4153-.161-.7443-.441-.987-.276-.2427-.656-.364-1.141-.364-.486 0-.889.1213-1.211.364-.318.2427-.5.5717-.546.987zm9.344 4.627c-.63 0-1.211-.0817-1.743-.245-.532-.168-.987-.3967-1.365-.686l.665-1.428c.368.252.767.4503 1.197.595.429.14.842.21 1.239.21.392 0 .693-.0583.903-.175.214-.1213.322-.294.322-.518 0-.2007-.096-.3477-.287-.441-.187-.098-.551-.203-1.092-.315-.934-.168-1.615-.4317-2.044-.791-.43-.364-.644-.8633-.644-1.498 0-.448.123-.8423.371-1.183.252-.3407.597-.6043 1.036-.791.438-.1913.942-.287 1.512-.287.56 0 1.087.077 1.582.231.499.1493.926.3593 1.281.63l-.644 1.435c-.187-.1493-.402-.28-.644-.392-.238-.112-.49-.1983-.756-.259-.262-.0653-.518-.098-.77-.098-.341 0-.616.0583-.826.175-.21.112-.315.2707-.315.476s.095.357.287.455c.191.098.548.2053 1.071.322.975.2053 1.668.4783 2.079.819.415.336.623.8097.623 1.421 0 .4713-.129.882-.385 1.232-.252.35-.607.623-1.064.819-.453.1913-.983.287-1.589.287z" fill="#1a1a18"></path></g><path d="m.5 44c0-24.0244 19.4756-43.5 43.5-43.5h255c24.024 0 43.5 19.4756 43.5 43.5s-19.476 43.5-43.5 43.5h-103.074-151.926c-24.0244 0-43.5-19.4756-43.5-43.5z" stroke="url(#b)"></path></svg> 