<?xml version="1.0" encoding="UTF-8"?> <svg xmlns="http://www.w3.org/2000/svg" xmlns:xlink="http://www.w3.org/1999/xlink" fill="none" height="90" viewBox="0 0 343 90" width="343"><filter id="a" color-interpolation-filters="sRGB" filterUnits="userSpaceOnUse" height="90" width="343" x="0" y="0"><feFlood flood-opacity="0" result="BackgroundImageFix"></feFlood><feColorMatrix in="SourceAlpha" result="hardAlpha" type="matrix" values="0 0 0 0 0 0 0 0 0 0 0 0 0 0 0 0 0 0 127 0"></feColorMatrix><feOffset dy="2"></feOffset><feGaussianBlur stdDeviation="10"></feGaussianBlur><feComposite in2="hardAlpha" operator="out"></feComposite><feColorMatrix type="matrix" values="0 0 0 0 0.0313726 0 0 0 0 0.815686 0 0 0 0 0.439216 0 0 0 0.4 0"></feColorMatrix><feBlend in2="BackgroundImageFix" mode="normal" result="effect1_dropShadow_317_1533"></feBlend><feBlend in="SourceGraphic" in2="effect1_dropShadow_317_1533" mode="normal" result="shape"></feBlend><feColorMatrix in="SourceAlpha" result="hardAlpha" type="matrix" values="0 0 0 0 0 0 0 0 0 0 0 0 0 0 0 0 0 0 127 0"></feColorMatrix><feOffset dy="8"></feOffset><feGaussianBlur stdDeviation="6"></feGaussianBlur><feComposite in2="hardAlpha" k2="-1" k3="1" operator="arithmetic"></feComposite><feColorMatrix type="matrix" values="0 0 0 0 1 0 0 0 0 1 0 0 0 0 1 0 0 0 0.3 0"></feColorMatrix><feBlend in2="shape" mode="normal" result="effect2_innerShadow_317_1533"></feBlend></filter><linearGradient id="b" gradientUnits="userSpaceOnUse" x1="11.7824" x2="169.862" y1="2.42944" y2="184.88"><stop offset="0" stop-color="#ffd409"></stop><stop offset=".880903" stop-color="#ffd409" stop-opacity="0"></stop></linearGradient><g filter="url(#a)"><rect fill="#ffd409" height="50" rx="25" shape-rendering="crispEdges" width="303" x="20" y="18"></rect><path d="m84.7937 48v-9.8h3.885c.7093 0 1.3276.119 1.855.357.532.2333.9403.5717 1.225 1.015.2893.4433.434.973.434 1.589 0 .4853-.0957.9123-.287 1.281-.1914.364-.455.6673-.791.91-.3314.2427-.714.4177-1.148.525l2.744 4.123h-2.471l-2.359-3.724h-1.015v3.724zm2.072-5.397h1.54c.532 0 .9473-.1073 1.246-.322.3033-.2193.455-.5507.455-.994 0-.4573-.14-.8003-.42-1.029-.2754-.2287-.679-.343-1.211-.343h-1.61zm10.5446 5.607c-.77 0-1.4467-.1563-2.03-.469s-1.0383-.749-1.365-1.309-.49-1.2157-.49-1.967c0-.546.0933-1.0477.28-1.505.1913-.4573.4573-.8517.798-1.183.3453-.336.749-.595 1.211-.777.4667-.1867.9777-.28 1.533-.28.6113 0 1.1527.1073 1.624.322.476.2147.8703.5157 1.1827.903.313.3827.53.833.651 1.351.126.518.138 1.0803.035 1.687h-5.4177c0 .3267.084.6113.252.854.1727.2427.413.434.721.574.3127.1353.6767.203 1.092.203.4107 0 .8027-.056 1.176-.168s.7257-.2823 1.057-.511l.6787 1.4c-.224.1727-.5037.3267-.8397.462-.336.1307-.693.231-1.071.301-.3733.0747-.7327.112-1.078.112zm-1.869-4.634h3.339c-.014-.4153-.161-.7443-.441-.987-.2753-.2427-.6557-.364-1.141-.364s-.889.1213-1.211.364c-.3173.2427-.4993.5717-.546.987zm12.0577 7.364v-4.529l.455.469c-.322.4293-.707.7583-1.155.987-.443.2287-.952.343-1.526.343-.695 0-1.311-.1657-1.848-.497-.536-.3313-.956-.7793-1.26-1.344-.303-.5693-.455-1.204-.455-1.904 0-.5553.087-1.0617.259-1.519.178-.4573.425-.8517.742-1.183.318-.336.691-.5927 1.12-.77.43-.182.899-.273 1.407-.273.462 0 .875.0653 1.239.196.369.1307.684.3127.945.546.262.2287.467.4947.616.798l-.28.462v-1.792h1.778v10.01zm-1.883-4.501c.364 0 .689-.0793.973-.238.285-.1633.507-.392.665-.686.164-.294.245-.644.245-1.05s-.081-.756-.245-1.05c-.163-.294-.387-.5203-.672-.679-.284-.1633-.606-.245-.966-.245-.364 0-.688.0817-.973.245-.284.1587-.508.385-.672.679-.163.294-.245.644-.245 1.05s.082.756.245 1.05c.164.294.388.5227.672.686.285.1587.609.238.973.238zm8.662 1.771c-.639 0-1.169-.126-1.589-.378-.415-.252-.726-.5973-.931-1.036s-.308-.9357-.308-1.491v-4.375h2.044v4.046c0 .42.114.7537.343 1.001.233.2473.567.371 1.001.371.28 0 .527-.0607.742-.182.215-.126.38-.301.497-.525.121-.224.182-.483.182-.777v-3.934h2.044v7.07h-1.778v-.777c-.243.28-.544.5157-.903.707-.355.1867-.803.28-1.344.28zm9.323 0c-.77 0-1.446-.1563-2.03-.469-.583-.3127-1.038-.749-1.365-1.309-.326-.56-.49-1.2157-.49-1.967 0-.546.094-1.0477.28-1.505.192-.4573.458-.8517.798-1.183.346-.336.749-.595 1.211-.777.467-.1867.978-.28 1.533-.28.612 0 1.153.1073 1.624.322.476.2147.871.5157 1.183.903.313.3827.53.833.651 1.351.126.518.138 1.0803.035 1.687h-5.418c0 .3267.084.6113.252.854.173.2427.413.434.721.574.313.1353.677.203 1.092.203.411 0 .803-.056 1.176-.168.374-.112.726-.2823 1.057-.511l.679 1.4c-.224.1727-.504.3267-.84.462-.336.1307-.693.231-1.071.301-.373.0747-.732.112-1.078.112zm-1.869-4.634h3.339c-.014-.4153-.161-.7443-.441-.987-.275-.2427-.655-.364-1.141-.364-.485 0-.889.1213-1.211.364-.317.2427-.499.5717-.546.987zm9.344 4.627c-.63 0-1.211-.0817-1.743-.245-.532-.168-.987-.3967-1.365-.686l.665-1.428c.369.252.768.4503 1.197.595.429.14.842.21 1.239.21.392 0 .693-.0583.903-.175.215-.1213.322-.294.322-.518 0-.2007-.096-.3477-.287-.441-.187-.098-.551-.203-1.092-.315-.933-.168-1.615-.4317-2.044-.791-.429-.364-.644-.8633-.644-1.498 0-.448.124-.8423.371-1.183.252-.3407.597-.6043 1.036-.791.439-.1913.943-.287 1.512-.287.56 0 1.087.077 1.582.231.499.1493.926.3593 1.281.63l-.644 1.435c-.187-.1493-.401-.28-.644-.392-.238-.112-.49-.1983-.756-.259-.261-.0653-.518-.098-.77-.098-.341 0-.616.0583-.826.175-.21.112-.315.2707-.315.476s.096.357.287.455.548.2053 1.071.322c.975.2053 1.668.4783 2.079.819.415.336.623.8097.623 1.421 0 .4713-.128.882-.385 1.232-.252.35-.607.623-1.064.819-.453.1913-.982.287-1.589.287zm7.682.007c-.756 0-1.353-.2123-1.792-.637-.434-.4293-.651-1.0757-.651-1.939v-6.741h2.044v2.037h1.757v1.638h-1.757v2.695c0 .4153.086.707.259.875s.404.252.693.252c.149 0 .294-.0163.434-.049.145-.0373.278-.0887.399-.154l.287 1.61c-.21.1167-.462.2147-.756.294-.289.0793-.595.119-.917.119zm-3.878-5.642v-1.638h1.638v1.638zm12.274 5.642c-.476 0-.901-.091-1.274-.273s-.667-.441-.882-.777c-.215-.3407-.322-.7467-.322-1.218 0-.4013.1-.7583.301-1.071s.504-.5693.91-.77c.411-.2053.929-.343 1.554-.413.63-.0747 1.372-.07 2.226.014l.021 1.302c-.509-.084-.959-.1237-1.351-.119-.387.0047-.714.0443-.98.119-.261.0747-.46.1843-.595.329-.135.14-.203.3103-.203.511 0 .2753.103.4877.308.637.205.1447.483.217.833.217.303 0 .576-.0537.819-.161s.436-.2637.581-.469.217-.455.217-.749v-1.694c0-.2753-.058-.5157-.175-.721-.112-.21-.289-.371-.532-.483-.243-.1167-.56-.175-.952-.175-.364 0-.728.056-1.092.168-.359.1073-.688.273-.987.497l-.539-1.428c.453-.2893.933-.4993 1.442-.63.509-.1353 1.006-.203 1.491-.203.663 0 1.241.105 1.736.315s.877.5343 1.148.973c.275.434.413.987.413 1.659v4.403h-1.778v-.777c-.233.3173-.553.5623-.959.735-.406.168-.866.252-1.379.252zm9.508-.21v-9.8h3.801c.719 0 1.356.126 1.911.378.556.2473.992.609 1.309 1.085.318.4713.476 1.0383.476 1.701 0 .6767-.147 1.2507-.441 1.722-.294.4667-.721.8237-1.281 1.071-.555.2427-1.229.364-2.023.364h-1.68v3.479zm2.072-5.222h1.645c.537 0 .955-.1097 1.253-.329.304-.2193.455-.567.455-1.043 0-.4807-.154-.8377-.462-1.071s-.718-.35-1.232-.35h-1.659zm9.93 5.432c-.77 0-1.447-.1563-2.03-.469-.584-.3127-1.039-.749-1.365-1.309-.327-.56-.49-1.2157-.49-1.967 0-.546.093-1.0477.28-1.505.191-.4573.457-.8517.798-1.183.345-.336.749-.595 1.211-.777.466-.1867.977-.28 1.533-.28.611 0 1.152.1073 1.624.322.476.2147.87.5157 1.183.903.312.3827.529.833.651 1.351.126.518.137 1.0803.035 1.687h-5.418c0 .3267.084.6113.252.854.172.2427.413.434.721.574.312.1353.676.203 1.092.203.41 0 .802-.056 1.176-.168.373-.112.725-.2823 1.057-.511l.679 1.4c-.224.1727-.504.3267-.84.462-.336.1307-.693.231-1.071.301-.374.0747-.733.112-1.078.112zm-1.869-4.634h3.339c-.014-.4153-.161-.7443-.441-.987-.276-.2427-.656-.364-1.141-.364-.486 0-.889.1213-1.211.364-.318.2427-.5.5717-.546.987zm6.782 4.424v-7.07h2.044v.875c.228-.392.522-.672.882-.84.359-.168.751-.252 1.176-.252.149 0 .287.0093.413.028.126.014.249.0327.371.056l-.252 2.107c-.15-.056-.308-.098-.476-.126-.168-.0327-.334-.049-.497-.049-.472 0-.859.1377-1.162.413-.304.2753-.455.6673-.455 1.176v3.682zm8.618.203c-.63 0-1.211-.0817-1.743-.245-.532-.168-.987-.3967-1.365-.686l.665-1.428c.369.252.768.4503 1.197.595.43.14.843.21 1.239.21.392 0 .693-.0583.903-.175.215-.1213.322-.294.322-.518 0-.2007-.095-.3477-.287-.441-.186-.098-.55-.203-1.092-.315-.933-.168-1.614-.4317-2.044-.791-.429-.364-.644-.8633-.644-1.498 0-.448.124-.8423.371-1.183.252-.3407.598-.6043 1.036-.791.439-.1913.943-.287 1.512-.287.56 0 1.088.077 1.582.231.5.1493.927.3593 1.281.63l-.644 1.435c-.186-.1493-.401-.28-.644-.392-.238-.112-.49-.1983-.756-.259-.261-.0653-.518-.098-.77-.098-.34 0-.616.0583-.826.175-.21.112-.315.2707-.315.476s.096.357.287.455c.192.098.549.2053 1.071.322.976.2053 1.669.4783 2.079.819.416.336.623.8097.623 1.421 0 .4713-.128.882-.385 1.232-.252.35-.606.623-1.064.819-.452.1913-.982.287-1.589.287zm7.941.007c-.761 0-1.435-.1703-2.023-.511s-1.05-.7933-1.386-1.358c-.331-.5693-.497-1.1947-.497-1.876 0-.4993.096-.973.287-1.421.191-.4527.462-.8517.812-1.197.35-.35.763-.6253 1.239-.826s.999-.301 1.568-.301c.761 0 1.433.1703 2.016.511.588.3407 1.048.7957 1.379 1.365.336.5647.504 1.1877.504 1.869 0 .4947-.096.9683-.287 1.421s-.462.854-.812 1.204c-.345.3453-.756.6183-1.232.819s-.999.301-1.568.301zm0-1.771c.359 0 .681-.0793.966-.238.285-.1633.509-.392.672-.686.163-.2987.245-.6487.245-1.05 0-.406-.082-.756-.245-1.05-.159-.294-.38-.5203-.665-.679-.285-.1633-.609-.245-.973-.245s-.691.0817-.98.245c-.285.1587-.509.385-.672.679-.159.294-.238.644-.238 1.05s.082.756.245 1.05.387.5227.672.686c.285.1587.609.238.973.238zm5.302 1.561v-7.07h2.044v.798c.271-.3547.59-.6113.959-.77.373-.1587.763-.238 1.169-.238.658 0 1.199.1307 1.624.392.429.2567.747.5903.952 1.001.21.4107.315.8423.315 1.295v4.592h-2.044v-3.955c0-.448-.126-.805-.378-1.071-.247-.266-.607-.399-1.078-.399-.299 0-.562.0677-.791.203-.229.1307-.408.315-.539.553-.126.238-.189.5133-.189.826v3.843zm10.956.21c-.476 0-.9-.091-1.274-.273-.373-.182-.667-.441-.882-.777-.214-.3407-.322-.7467-.322-1.218 0-.4013.101-.7583.301-1.071.201-.3127.504-.5693.91-.77.411-.2053.929-.343 1.554-.413.63-.0747 1.372-.07 2.226.014l.021 1.302c-.508-.084-.959-.1237-1.351-.119-.387.0047-.714.0443-.98.119-.261.0747-.459.1843-.595.329-.135.14-.203.3103-.203.511 0 .2753.103.4877.308.637.206.1447.483.217.833.217.304 0 .577-.0537.819-.161.243-.1073.437-.2637.581-.469.145-.2053.217-.455.217-.749v-1.694c0-.2753-.058-.5157-.175-.721-.112-.21-.289-.371-.532-.483-.242-.1167-.56-.175-.952-.175-.364 0-.728.056-1.092.168-.359.1073-.688.273-.987.497l-.539-1.428c.453-.2893.934-.4993 1.442-.63.509-.1353 1.006-.203 1.491-.203.663 0 1.242.105 1.736.315.495.21.878.5343 1.148.973.276.434.413.987.413 1.659v4.403h-1.778v-.777c-.233.3173-.553.5623-.959.735-.406.168-.865.252-1.379.252zm6.011-.21v-10.08h2.044v10.08zm7.531 0v-9.8h3.262c.999 0 1.878.2077 2.639.623.765.4153 1.36.9917 1.785 1.729.429.7373.644 1.589.644 2.555 0 .7187-.124 1.379-.371 1.981-.243.602-.588 1.12-1.036 1.554-.448.4293-.982.763-1.603 1.001s-1.307.357-2.058.357zm2.072-1.932h1.043c.457 0 .87-.063 1.239-.189.373-.1307.695-.3243.966-.581s.478-.567.623-.931c.145-.3687.217-.7887.217-1.26 0-.6347-.128-1.1737-.385-1.617-.252-.4433-.607-.7817-1.064-1.015s-.989-.35-1.596-.35h-1.043zm11.146 2.142c-.77 0-1.447-.1563-2.03-.469s-1.038-.749-1.365-1.309-.49-1.2157-.49-1.967c0-.546.093-1.0477.28-1.505.191-.4573.457-.8517.798-1.183.345-.336.749-.595 1.211-.777.467-.1867.978-.28 1.533-.28.611 0 1.153.1073 1.624.322.476.2147.87.5157 1.183.903.313.3827.53.833.651 1.351.126.518.138 1.0803.035 1.687h-5.418c0 .3267.084.6113.252.854.173.2427.413.434.721.574.313.1353.677.203 1.092.203.411 0 .803-.056 1.176-.168s.726-.2823 1.057-.511l.679 1.4c-.224.1727-.504.3267-.84.462-.336.1307-.693.231-1.071.301-.373.0747-.733.112-1.078.112zm-1.869-4.634h3.339c-.014-.4153-.161-.7443-.441-.987-.275-.2427-.656-.364-1.141-.364s-.889.1213-1.211.364c-.317.2427-.499.5717-.546.987zm6.782 4.424v-7.07h2.044v.91c.177-.252.383-.4597.616-.623.238-.168.49-.2917.756-.371.271-.084.541-.126.812-.126.537 0 .994.1213 1.372.364.383.238.646.553.791.945.299-.4667.681-.8003 1.148-1.001.467-.2053.954-.308 1.463-.308.677 0 1.211.1307 1.603.392.392.2567.67.5903.833 1.001.168.4107.252.8423.252 1.295v4.592h-2.044v-4.004c0-.4247-.114-.7677-.343-1.029-.224-.2613-.555-.392-.994-.392-.275 0-.523.0607-.742.182s-.392.2847-.518.49c-.121.2007-.182.4317-.182.693v4.06h-2.044v-4.004c0-.4247-.114-.7677-.343-1.029s-.56-.392-.994-.392c-.28 0-.53.0607-.749.182-.215.1213-.385.2847-.511.49-.121.2007-.182.4317-.182.693v4.06zm16.928.21c-.76 0-1.435-.1703-2.023-.511s-1.05-.7933-1.386-1.358c-.331-.5693-.497-1.1947-.497-1.876 0-.4993.096-.973.287-1.421.192-.4527.462-.8517.812-1.197.35-.35.763-.6253 1.239-.826s.999-.301 1.568-.301c.761 0 1.433.1703 2.016.511.588.3407 1.048.7957 1.379 1.365.336.5647.504 1.1877.504 1.869 0 .4947-.095.9683-.287 1.421-.191.4527-.462.854-.812 1.204-.345.3453-.756.6183-1.232.819s-.998.301-1.568.301zm0-1.771c.36 0 .682-.0793.966-.238.285-.1633.509-.392.672-.686.164-.2987.245-.6487.245-1.05 0-.406-.081-.756-.245-1.05-.158-.294-.38-.5203-.665-.679-.284-.1633-.609-.245-.973-.245s-.69.0817-.98.245c-.284.1587-.508.385-.672.679-.158.294-.238.644-.238 1.05s.082.756.245 1.05c.164.294.388.5227.672.686.285.1587.609.238.973.238z" fill="#1a1a18"></path></g><path d="m.5 44c0-24.0244 19.4756-43.5 43.5-43.5h255c24.024 0 43.5 19.4756 43.5 43.5s-19.476 43.5-43.5 43.5h-103.074-151.926c-24.0244 0-43.5-19.4756-43.5-43.5z" stroke="url(#b)"></path></svg> 