<?xml version="1.0" encoding="UTF-8"?> <svg xmlns="http://www.w3.org/2000/svg" xmlns:xlink="http://www.w3.org/1999/xlink" fill="none" height="117" viewBox="0 0 330 117" width="330"><filter id="a" color-interpolation-filters="sRGB" filterUnits="userSpaceOnUse" height="120" width="330" x="0" y="2"><feFlood flood-opacity="0" result="BackgroundImageFix"></feFlood><feColorMatrix in="SourceAlpha" result="hardAlpha" type="matrix" values="0 0 0 0 0 0 0 0 0 0 0 0 0 0 0 0 0 0 127 0"></feColorMatrix><feOffset dy="2"></feOffset><feGaussianBlur stdDeviation="10"></feGaussianBlur><feComposite in2="hardAlpha" operator="out"></feComposite><feColorMatrix type="matrix" values="0 0 0 0 0.996078 0 0 0 0 0.541176 0 0 0 0 0.0156863 0 0 0 0.4 0"></feColorMatrix><feBlend in2="BackgroundImageFix" mode="normal" result="effect1_dropShadow_316_6420"></feBlend><feBlend in="SourceGraphic" in2="effect1_dropShadow_316_6420" mode="normal" result="shape"></feBlend><feColorMatrix in="SourceAlpha" result="hardAlpha" type="matrix" values="0 0 0 0 0 0 0 0 0 0 0 0 0 0 0 0 0 0 127 0"></feColorMatrix><feOffset dy="8"></feOffset><feGaussianBlur stdDeviation="6"></feGaussianBlur><feComposite in2="hardAlpha" k2="-1" k3="1" operator="arithmetic"></feComposite><feColorMatrix type="matrix" values="0 0 0 0 1 0 0 0 0 1 0 0 0 0 1 0 0 0 0.3 0"></feColorMatrix><feBlend in2="shape" mode="normal" result="effect2_innerShadow_316_6420"></feBlend></filter><linearGradient id="b" gradientUnits="userSpaceOnUse" x1="42" x2="165" y1="4.49999" y2="117"><stop offset="0" stop-color="#fe8a04"></stop><stop offset="1" stop-color="#fe8a04" stop-opacity="0"></stop></linearGradient><g filter="url(#a)"><rect fill="#fe8a04" height="80" rx="40" shape-rendering="crispEdges" width="290" x="20" y="20"></rect><path d="m49.4149 65.5v-11.2h9.488v11.2h-2.368v-9.04h-4.752v9.04zm15.7867.24c-.8693 0-1.64-.1947-2.312-.584s-1.2-.9067-1.584-1.552c-.3786-.6507-.568-1.3653-.568-2.144 0-.5707.1094-1.112.328-1.624.2187-.5173.528-.9733.928-1.368.4-.4.872-.7147 1.416-.944s1.1414-.344 1.792-.344c.8694 0 1.6374.1947 2.304.584.672.3893 1.1974.9093 1.576 1.56.384.6453.576 1.3573.576 2.136 0 .5653-.1093 1.1067-.328 1.624-.2186.5173-.528.976-.928 1.376-.3946.3947-.864.7067-1.408.936s-1.1413.344-1.792.344zm0-2.024c.4107 0 .7787-.0907 1.104-.272.3254-.1867.5814-.448.768-.784.1867-.3413.28-.7413.28-1.2 0-.464-.0933-.864-.28-1.2-.1813-.336-.4346-.5947-.76-.776-.3253-.1867-.696-.28-1.112-.28s-.7893.0933-1.12.28c-.3253.1813-.5813.44-.768.776-.1813.336-.272.736-.272 1.2s.0934.864.28 1.2c.1867.336.4427.5973.768.784.3254.1813.696.272 1.112.272zm9.9295 2.024c-.8533 0-1.616-.1867-2.288-.56s-1.2026-.8827-1.592-1.528c-.384-.6453-.576-1.376-.576-2.192 0-.6133.1147-1.1787.344-1.696.2294-.5227.5494-.976.96-1.36.416-.3893.9014-.6907 1.456-.904.5547-.2133 1.1547-.32 1.8-.32.592 0 1.1387.08 1.64.24.5067.16.9654.4 1.376.72l-1.056 1.744c-.256-.2293-.5413-.4-.856-.512-.3093-.112-.6373-.168-.984-.168-.4853 0-.904.088-1.256.264-.3466.176-.616.432-.808.768-.1866.336-.28.7413-.28 1.216 0 .7093.208 1.264.624 1.664.4214.4.9947.6 1.72.6.3894 0 .7547-.072 1.096-.216.3467-.144.6534-.344.92-.6l.984 1.768c-.4426.3307-.9466.592-1.512.784-.5653.192-1.136.288-1.712.288zm4.6768-.24v-8.08h1.992.048l3.392 5.072-1 .016 3.2-5.088h2.04v8.08h-2.064l.024-5.48.456.184-2.544 3.848h-1.408l-2.688-3.856.44-.176.04 5.48zm15.7375.24c-.8694 0-1.64-.1947-2.312-.584s-1.2-.9067-1.584-1.552c-.3787-.6507-.568-1.3653-.568-2.144 0-.5707.1093-1.112.328-1.624.2186-.5173.528-.9733.928-1.368.4-.4.872-.7147 1.416-.944s1.1413-.344 1.792-.344c.8693 0 1.6373.1947 2.304.584.672.3893 1.1973.9093 1.576 1.56.384.6453.5756 1.3573.5756 2.136 0 .5653-.109 1.1067-.3276 1.624-.2187.5173-.528.976-.928 1.376-.3947.3947-.864.7067-1.408.936s-1.1414.344-1.792.344zm0-2.024c.4106 0 .7786-.0907 1.104-.272.3253-.1867.5813-.448.768-.784.1866-.3413.28-.7413.28-1.2 0-.464-.0934-.864-.28-1.2-.1814-.336-.4347-.5947-.76-.776-.3254-.1867-.696-.28-1.112-.28s-.7894.0933-1.12.28c-.3254.1813-.5814.44-.768.776-.1814.336-.272.736-.272 1.2s.0933.864.28 1.2c.1866.336.4426.5973.768.784.3253.1813.696.272 1.112.272zm7.7316 1.784v-6.208h-2.44v-1.872h7.208v1.872h-2.432v6.208zm6.265 3.36v-11.44h2.032v.992c.31-.368.702-.664 1.176-.888.48-.2293 1.048-.344 1.704-.344.779 0 1.472.1813 2.08.544.608.3573 1.086.8587 1.432 1.504.347.6453.52 1.3893.52 2.232 0 .6027-.101 1.1627-.304 1.68-.197.5173-.477.9707-.84 1.36-.362.3893-.792.6933-1.288.912s-1.042.328-1.64.328c-.528 0-1.005-.088-1.432-.264-.421-.176-.792-.424-1.112-.744v4.128zm4.48-5.144c.416 0 .787-.0907 1.112-.272.331-.1867.587-.448.768-.784.187-.336.28-.736.28-1.2s-.093-.864-.28-1.2c-.186-.336-.442-.5947-.768-.776-.325-.1867-.696-.28-1.112-.28-.41 0-.778.0933-1.104.28-.325.1813-.581.44-.768.776-.186.336-.28.736-.28 1.2s.091.864.272 1.2c.187.336.443.5973.768.784.326.1813.696.272 1.112.272zm9.921 2.024c-.88 0-1.653-.1787-2.32-.536-.666-.3573-1.186-.856-1.56-1.496-.373-.64-.56-1.3893-.56-2.248 0-.624.107-1.1973.32-1.72.219-.5227.523-.9733.912-1.352.395-.384.856-.68 1.384-.888.534-.2133 1.118-.32 1.752-.32.699 0 1.318.1227 1.856.368.544.2453.995.5893 1.352 1.032.358.4373.606.952.744 1.544.144.592.158 1.2347.04 1.928h-6.192c0 .3733.096.6987.288.976.198.2773.472.496.824.656.358.1547.774.232 1.248.232.47 0 .918-.064 1.344-.192.427-.128.83-.3227 1.208-.584l.776 1.6c-.256.1973-.576.3733-.96.528-.384.1493-.792.264-1.224.344-.426.0853-.837.128-1.232.128zm-2.136-5.296h3.816c-.016-.4747-.184-.8507-.504-1.128-.314-.2773-.749-.416-1.304-.416-.554 0-1.016.1387-1.384.416-.362.2773-.57.6533-.624 1.128zm9.423 5.056v-6.208h-2.44v-1.872h7.208v1.872h-2.432v6.208zm6.265 0v-8.08h2.336v6.408h1.224c.47 0 .827-.0987 1.072-.296.246-.1973.368-.48.368-.848s-.114-.6533-.344-.856c-.224-.208-.544-.312-.96-.312h-1.616v-1.656h1.8c1.094 0 1.952.2373 2.576.712.63.4747.944 1.1787.944 2.112 0 .5867-.146 1.0907-.44 1.512-.293.416-.709.7387-1.248.968-.533.224-1.162.336-1.888.336zm18.124 0-2.56-4.248 2.552-3.832h2.472l-2.52 3.712 2.832 4.368zm-5.264 0v-8.08h2.336v2.976h2.448v1.872h-2.448v3.232zm13.026.24c-.88 0-1.654-.1787-2.32-.536-.667-.3573-1.187-.856-1.56-1.496-.374-.64-.56-1.3893-.56-2.248 0-.624.106-1.1973.32-1.72.218-.5227.522-.9733.912-1.352.394-.384.856-.68 1.384-.888.533-.2133 1.117-.32 1.752-.32.698 0 1.317.1227 1.856.368.544.2453.994.5893 1.352 1.032.357.4373.605.952.744 1.544.144.592.157 1.2347.04 1.928h-6.192c0 .3733.096.6987.288.976.197.2773.472.496.824.656.357.1547.773.232 1.248.232.469 0 .917-.064 1.344-.192.426-.128.829-.3227 1.208-.584l.776 1.6c-.256.1973-.576.3733-.96.528-.384.1493-.792.264-1.224.344-.427.0853-.838.128-1.232.128zm-2.136-5.296h3.816c-.016-.4747-.184-.8507-.504-1.128-.315-.2773-.75-.416-1.304-.416-.555 0-1.016.1387-1.384.416-.363.2773-.571.6533-.624 1.128zm7.75 5.056v-8.08h2.232v4.768l3.784-4.768h2.08v8.08h-2.24v-4.832l-3.792 4.832zm4.04-9.28c-.64 0-1.2-.1253-1.68-.376s-.853-.5973-1.12-1.04c-.261-.4427-.384-.9547-.368-1.536h1.904c-.016.4267.091.7707.32 1.032.23.256.544.384.944.384s.712-.128.936-.384c.23-.2613.334-.6053.312-1.032h1.912c.016.5707-.109 1.08-.376 1.528-.266.4427-.64.792-1.12 1.048-.48.2507-1.034.376-1.664.376zm10.127 9.52c-.853 0-1.616-.1867-2.288-.56s-1.202-.8827-1.592-1.528c-.384-.6453-.576-1.376-.576-2.192 0-.6133.115-1.1787.344-1.696.23-.5227.55-.976.96-1.36.416-.3893.902-.6907 1.456-.904.555-.2133 1.155-.32 1.8-.32.592 0 1.139.08 1.64.24.507.16.966.4 1.376.72l-1.056 1.744c-.256-.2293-.541-.4-.856-.512-.309-.112-.637-.168-.984-.168-.485 0-.904.088-1.256.264-.346.176-.616.432-.808.768-.186.336-.28.7413-.28 1.216 0 .7093.208 1.264.624 1.664.422.4.995.6 1.72.6.39 0 .755-.072 1.096-.216.347-.144.654-.344.92-.6l.984 1.768c-.442.3307-.946.592-1.512.784-.565.192-1.136.288-1.712.288zm14.163-.24v-6.208h-2.624v.728c0 .6507-.051 1.2667-.152 1.848-.102.5813-.278 1.1067-.528 1.576-.251.464-.598.8587-1.04 1.184-.438.32-.998.5467-1.68.68l-.48-1.616c.485-.1067.853-.3307 1.104-.672.25-.3413.418-.768.504-1.28.09-.5173.136-1.0907.136-1.72v-2.6h7.096v8.08zm-6.504 2.4v-4.208l1.28.104.368-.168h8.816v4.272h-2.136v-2.4h-6.192v2.4zm12.078-2.224-.776-2.072c.55-.1387.95-.3467 1.2-.624.251-.2773.408-.6533.472-1.128.07-.48.104-1.0907.104-1.832v-2.6h6.936v8.08h-2.336v-6.208h-2.464v.728c0 .832-.048 1.568-.144 2.208-.09.64-.25 1.192-.48 1.656-.229.4587-.546.8347-.952 1.128-.405.2933-.925.5147-1.56.664zm9.606-.176 2.896-4.24.592 1.448c-.635 0-1.192-.1013-1.672-.304s-.856-.4933-1.128-.872c-.267-.3787-.4-.832-.4-1.36 0-.576.138-1.0667.416-1.472.282-.4107.68-.7253 1.192-.944.517-.224 1.125-.336 1.824-.336h3.768v8.08h-2.224v-6.408h-1.288c-.448 0-.792.0853-1.032.256-.235.1707-.352.4213-.352.752 0 .3253.106.5787.32.76.218.1813.53.272.936.272h1.656v1.6h-1.088l-1.848 2.768zm17.322.24c-.87 0-1.64-.1947-2.312-.584s-1.2-.9067-1.584-1.552c-.379-.6507-.568-1.3653-.568-2.144 0-.5707.109-1.112.328-1.624.218-.5173.528-.9733.928-1.368.4-.4.872-.7147 1.416-.944s1.141-.344 1.792-.344c.869 0 1.637.1947 2.304.584.672.3893 1.197.9093 1.576 1.56.384.6453.576 1.3573.576 2.136 0 .5653-.11 1.1067-.328 1.624-.219.5173-.528.976-.928 1.376-.395.3947-.864.7067-1.408.936s-1.142.344-1.792.344zm0-2.024c.41 0 .778-.0907 1.104-.272.325-.1867.581-.448.768-.784.186-.3413.28-.7413.28-1.2 0-.464-.094-.864-.28-1.2-.182-.336-.435-.5947-.76-.776-.326-.1867-.696-.28-1.112-.28s-.79.0933-1.12.28c-.326.1813-.582.44-.768.776-.182.336-.272.736-.272 1.2s.093.864.28 1.2c.186.336.442.5973.768.784.325.1813.696.272 1.112.272zm7.731 1.784v-6.208h-2.44v-1.872h7.208v1.872h-2.432v6.208zm10.042.24c-.88 0-1.654-.1787-2.32-.536-.667-.3573-1.187-.856-1.56-1.496-.374-.64-.56-1.3893-.56-2.248 0-.624.106-1.1973.32-1.72.218-.5227.522-.9733.912-1.352.394-.384.856-.68 1.384-.888.533-.2133 1.117-.32 1.752-.32.698 0 1.317.1227 1.856.368.544.2453.994.5893 1.352 1.032.357.4373.605.952.744 1.544.144.592.157 1.2347.04 1.928h-6.192c0 .3733.096.6987.288.976.197.2773.472.496.824.656.357.1547.773.232 1.248.232.469 0 .917-.064 1.344-.192.426-.128.829-.3227 1.208-.584l.776 1.6c-.256.1973-.576.3733-.96.528-.384.1493-.792.264-1.224.344-.427.0853-.838.128-1.232.128zm-2.136-5.296h3.816c-.016-.4747-.184-.8507-.504-1.128-.315-.2773-.75-.416-1.304-.416-.555 0-1.016.1387-1.384.416-.363.2773-.571.6533-.624 1.128zm7.654 5.232-.776-2.072c.549-.1387.949-.3467 1.2-.624s.408-.6533.472-1.128c.069-.48.104-1.0907.104-1.832v-2.6h6.936v8.08h-2.336v-6.208h-2.464v.728c0 .832-.048 1.568-.144 2.208-.091.64-.251 1.192-.48 1.656-.229.4587-.547.8347-.952 1.128s-.925.5147-1.56.664zm13.982.064c-.88 0-1.654-.1787-2.32-.536-.667-.3573-1.187-.856-1.56-1.496-.374-.64-.56-1.3893-.56-2.248 0-.624.106-1.1973.32-1.72.218-.5227.522-.9733.912-1.352.394-.384.856-.68 1.384-.888.533-.2133 1.117-.32 1.752-.32.698 0 1.317.1227 1.856.368.544.2453.994.5893 1.352 1.032.357.4373.605.952.744 1.544.144.592.157 1.2347.04 1.928h-6.192c0 .3733.096.6987.288.976.197.2773.472.496.824.656.357.1547.773.232 1.248.232.469 0 .917-.064 1.344-.192.426-.128.829-.3227 1.208-.584l.776 1.6c-.256.1973-.576.3733-.96.528-.384.1493-.792.264-1.224.344-.427.0853-.838.128-1.232.128zm-2.136-5.296h3.816c-.016-.4747-.184-.8507-.504-1.128-.315-.2773-.75-.416-1.304-.416-.555 0-1.016.1387-1.384.416-.363.2773-.571.6533-.624 1.128zm7.75 5.056v-8.08h2.232v4.768l3.784-4.768h2.08v8.08h-2.24v-4.832l-3.792 4.832zm4.04-9.28c-.64 0-1.2-.1253-1.68-.376s-.853-.5973-1.12-1.04c-.261-.4427-.384-.9547-.368-1.536h1.904c-.016.4267.091.7707.32 1.032.229.256.544.384.944.384s.712-.128.936-.384c.229-.2613.333-.6053.312-1.032h1.912c.016.5707-.109 1.08-.376 1.528-.267.4427-.64.792-1.12 1.048-.48.2507-1.035.376-1.664.376z" fill="#1a1a18"></path></g><path d="m.5 58.5c0-32.0325 25.9675-58 58-58h213c32.033 0 58 25.9675 58 58s-25.967 58-58 58h-83-130c-32.0325 0-58-25.9675-58-58z" stroke="url(#b)"></path></svg> 