<?xml version="1.0" encoding="UTF-8"?> <svg xmlns="http://www.w3.org/2000/svg" xmlns:xlink="http://www.w3.org/1999/xlink" fill="none" height="90" viewBox="0 0 343 90" width="343"><filter id="a" color-interpolation-filters="sRGB" filterUnits="userSpaceOnUse" height="90" width="343" x="0" y="0"><feFlood flood-opacity="0" result="BackgroundImageFix"></feFlood><feColorMatrix in="SourceAlpha" result="hardAlpha" type="matrix" values="0 0 0 0 0 0 0 0 0 0 0 0 0 0 0 0 0 0 127 0"></feColorMatrix><feOffset dy="2"></feOffset><feGaussianBlur stdDeviation="10"></feGaussianBlur><feComposite in2="hardAlpha" operator="out"></feComposite><feColorMatrix type="matrix" values="0 0 0 0 0.0313726 0 0 0 0 0.815686 0 0 0 0 0.439216 0 0 0 0.4 0"></feColorMatrix><feBlend in2="BackgroundImageFix" mode="normal" result="effect1_dropShadow_317_1533"></feBlend><feBlend in="SourceGraphic" in2="effect1_dropShadow_317_1533" mode="normal" result="shape"></feBlend><feColorMatrix in="SourceAlpha" result="hardAlpha" type="matrix" values="0 0 0 0 0 0 0 0 0 0 0 0 0 0 0 0 0 0 127 0"></feColorMatrix><feOffset dy="8"></feOffset><feGaussianBlur stdDeviation="6"></feGaussianBlur><feComposite in2="hardAlpha" k2="-1" k3="1" operator="arithmetic"></feComposite><feColorMatrix type="matrix" values="0 0 0 0 1 0 0 0 0 1 0 0 0 0 1 0 0 0 0.3 0"></feColorMatrix><feBlend in2="shape" mode="normal" result="effect2_innerShadow_317_1533"></feBlend></filter><linearGradient id="b" gradientUnits="userSpaceOnUse" x1="11.7824" x2="169.862" y1="2.42944" y2="184.88"><stop offset="0" stop-color="#ffd409"></stop><stop offset=".880903" stop-color="#ffd409" stop-opacity="0"></stop></linearGradient><g filter="url(#a)"><rect fill="#ffd409" height="50" rx="25" shape-rendering="crispEdges" width="303" x="20" y="18"></rect><path d="m65.6052 48v-9.8h8.302v9.8h-2.072v-7.91h-4.158v7.91zm13.8134.21c-.7607 0-1.435-.1703-2.023-.511s-1.05-.7933-1.386-1.358c-.3313-.5693-.497-1.1947-.497-1.876 0-.4993.0957-.973.287-1.421.1913-.4527.462-.8517.812-1.197.35-.35.763-.6253 1.239-.826s.9987-.301 1.568-.301c.7607 0 1.4327.1703 2.016.511.588.3407 1.0477.7957 1.379 1.365.336.5647.504 1.1877.504 1.869 0 .4947-.0957.9683-.287 1.421s-.462.854-.812 1.204c-.3453.3453-.756.6183-1.232.819s-.9987.301-1.568.301zm0-1.771c.3593 0 .6813-.0793.966-.238.2847-.1633.5087-.392.672-.686.1633-.2987.245-.6487.245-1.05 0-.406-.0817-.756-.245-1.05-.1587-.294-.3803-.5203-.665-.679-.2847-.1633-.609-.245-.973-.245s-.6907.0817-.98.245c-.2847.1587-.5087.385-.672.679-.1587.294-.238.644-.238 1.05s.0817.756.245 1.05.3873.5227.672.686c.2847.1587.609.238.973.238zm5.218 1.715-.679-1.813c.4806-.1213.8306-.3033 1.05-.546.2193-.2427.357-.5717.413-.987.0606-.42.091-.9543.091-1.603v-2.275h6.069v7.07h-2.044v-5.432h-2.156v.637c0 .728-.042 1.372-.126 1.932-.0794.56-.2194 1.043-.42 1.449-.2007.4013-.4784.7303-.833.987-.3547.2567-.8097.4503-1.365.581zm9.8327 2.975c-.2987 0-.5927-.0303-.882-.091-.2894-.0607-.5624-.161-.819-.301l.441-1.722c.1493.084.3126.1493.49.196.182.0467.35.07.504.07.28 0 .511-.0607.693-.182s.3173-.3197.406-.595l.147-.448-2.758-7.126h2.219l1.694 5.054 1.645-5.054h2.1627l-2.9677 7.875c-.2334.588-.5017 1.05-.805 1.386-.3034.3407-.637.581-1.001.721-.364.1447-.7537.217-1.169.217zm11.3397-3.129v-2.569c-.318.0793-.614.1423-.889.189-.276.042-.558.063-.847.063-.612 0-1.137-.098-1.575-.294-.439-.196-.777-.497-1.015-.903-.238-.4107-.357-.9357-.357-1.575v-1.981h2.044v1.708c0 .4387.098.7723.294 1.001.2.2287.539.343 1.015.343.284 0 .529-.014.735-.042.21-.028.408-.0583.595-.091v-2.919h2.044v7.07zm4.027 0v-7.07h1.953v4.172l3.311-4.172h1.82v7.07h-1.96v-4.228l-3.318 4.228zm10.541 0v-5.432h-2.135v-1.638h6.307v1.638h-2.128v5.432zm5.482 0v-7.07h2.044v5.607h1.071c.411 0 .724-.0863.938-.259.215-.1727.322-.42.322-.742s-.1-.5717-.301-.749c-.196-.182-.476-.273-.84-.273h-1.414v-1.449h1.575c.957 0 1.708.2077 2.254.623.551.4153.826 1.0313.826 1.848 0 .5133-.128.9543-.385 1.323-.256.364-.62.6463-1.092.847-.466.196-1.017.294-1.652.294zm11.252 0v-7.07h7.063v7.07h-2.044v-5.432h-2.975v5.432zm12.355.21c-.77 0-1.447-.1563-2.03-.469s-1.038-.749-1.365-1.309-.49-1.2157-.49-1.967c0-.546.093-1.0477.28-1.505.191-.4573.457-.8517.798-1.183.345-.336.749-.595 1.211-.777.467-.1867.978-.28 1.533-.28.611 0 1.153.1073 1.624.322.476.2147.87.5157 1.183.903.313.3827.53.833.651 1.351.126.518.138 1.0803.035 1.687h-5.418c0 .3267.084.6113.252.854.173.2427.413.434.721.574.313.1353.677.203 1.092.203.411 0 .803-.056 1.176-.168s.726-.2823 1.057-.511l.679 1.4c-.224.1727-.504.3267-.84.462-.336.1307-.693.231-1.071.301-.373.0747-.733.112-1.078.112zm-1.869-4.634h3.339c-.014-.4153-.161-.7443-.441-.987-.275-.2427-.656-.364-1.141-.364s-.889.1213-1.211.364c-.317.2427-.499.5717-.546.987zm6.782 7.364v-10.01h1.778v.868c.27-.322.613-.581 1.029-.777.42-.2007.917-.301 1.491-.301.681 0 1.288.1587 1.82.476.532.3127.949.7513 1.253 1.316.303.5647.455 1.2157.455 1.953 0 .5273-.089 1.0173-.266 1.47-.173.4527-.418.8493-.735 1.19-.318.3407-.693.6067-1.127.798s-.913.287-1.435.287c-.462 0-.88-.077-1.253-.231-.369-.154-.693-.371-.973-.651v3.612zm3.92-4.501c.364 0 .688-.0793.973-.238.289-.1633.513-.392.672-.686.163-.294.245-.644.245-1.05s-.082-.756-.245-1.05c-.164-.294-.388-.5203-.672-.679-.285-.1633-.609-.245-.973-.245-.36 0-.682.0817-.966.245-.285.1587-.509.385-.672.679-.164.294-.245.644-.245 1.05s.079.756.238 1.05c.163.294.387.5227.672.686.284.1587.609.238.973.238zm8.695 1.771c-.747 0-1.414-.1633-2.002-.49s-1.053-.7723-1.393-1.337c-.336-.5647-.504-1.204-.504-1.918 0-.5367.1-1.0313.301-1.484.2-.4573.48-.854.84-1.19.364-.3407.788-.6043 1.274-.791.485-.1867 1.01-.28 1.575-.28.518 0 .996.07 1.435.21.443.14.844.35 1.204.63l-.924 1.526c-.224-.2007-.474-.35-.749-.448-.271-.098-.558-.147-.861-.147-.425 0-.791.077-1.099.231-.304.154-.539.378-.707.672-.164.294-.245.6487-.245 1.064 0 .6207.182 1.106.546 1.456.368.35.87.525 1.505.525.34 0 .66-.063.959-.189.303-.126.571-.301.805-.525l.861 1.547c-.388.2893-.829.518-1.323.686-.495.168-.994.252-1.498.252zm7.28 0c-.761 0-1.435-.1703-2.023-.511s-1.05-.7933-1.386-1.358c-.331-.5693-.497-1.1947-.497-1.876 0-.4993.096-.973.287-1.421.191-.4527.462-.8517.812-1.197.35-.35.763-.6253 1.239-.826s.999-.301 1.568-.301c.761 0 1.433.1703 2.016.511.588.3407 1.048.7957 1.379 1.365.336.5647.504 1.1877.504 1.869 0 .4947-.096.9683-.287 1.421s-.462.854-.812 1.204c-.345.3453-.756.6183-1.232.819s-.999.301-1.568.301zm0-1.771c.359 0 .681-.0793.966-.238.285-.1633.509-.392.672-.686.163-.2987.245-.6487.245-1.05 0-.406-.082-.756-.245-1.05-.159-.294-.38-.5203-.665-.679-.285-.1633-.609-.245-.973-.245s-.691.0817-.98.245c-.285.1587-.509.385-.672.679-.159.294-.238.644-.238 1.05s.082.756.245 1.05.387.5227.672.686c.285.1587.609.238.973.238zm5.302 1.561v-7.07h2.044v2.604h2.982v-2.604h2.044v7.07h-2.044v-2.828h-2.982v2.828zm11.038.21c-.476 0-.9-.091-1.274-.273-.373-.182-.667-.441-.882-.777-.214-.3407-.322-.7467-.322-1.218 0-.4013.101-.7583.301-1.071.201-.3127.504-.5693.91-.77.411-.2053.929-.343 1.554-.413.63-.0747 1.372-.07 2.226.014l.021 1.302c-.508-.084-.959-.1237-1.351-.119-.387.0047-.714.0443-.98.119-.261.0747-.459.1843-.595.329-.135.14-.203.3103-.203.511 0 .2753.103.4877.308.637.206.1447.483.217.833.217.304 0 .577-.0537.819-.161.243-.1073.437-.2637.581-.469.145-.2053.217-.455.217-.749v-1.694c0-.2753-.058-.5157-.175-.721-.112-.21-.289-.371-.532-.483-.242-.1167-.56-.175-.952-.175-.364 0-.728.056-1.092.168-.359.1073-.688.273-.987.497l-.539-1.428c.453-.2893.934-.4993 1.442-.63.509-.1353 1.006-.203 1.491-.203.663 0 1.242.105 1.736.315.495.21.878.5343 1.148.973.276.434.413.987.413 1.659v4.403h-1.778v-.777c-.233.3173-.553.5623-.959.735-.406.168-.865.252-1.379.252zm5.927-.056-.679-1.813c.481-.1213.831-.3033 1.05-.546s.357-.5717.413-.987c.061-.42.091-.9543.091-1.603v-2.275h6.069v7.07h-2.044v-5.432h-2.156v.637c0 .728-.042 1.372-.126 1.932-.079.56-.219 1.043-.42 1.449-.201.4013-.478.7303-.833.987s-.81.4503-1.365.581zm8.93-.154v-7.07h2.044v5.607h1.071c.41 0 .723-.0863.938-.259.214-.1727.322-.42.322-.742s-.101-.5717-.301-.749c-.196-.182-.476-.273-.84-.273h-1.414v-1.449h1.575c.956 0 1.708.2077 2.254.623.55.4153.826 1.0313.826 1.848 0 .5133-.129.9543-.385 1.323-.257.364-.621.6463-1.092.847-.467.196-1.018.294-1.652.294zm7.957 0v-7.07h2.044v2.604h2.982v-2.604h2.044v7.07h-2.044v-2.828h-2.982v2.828zm12.389.21c-.761 0-1.435-.1703-2.023-.511s-1.05-.7933-1.386-1.358c-.331-.5693-.497-1.1947-.497-1.876 0-.4993.096-.973.287-1.421.191-.4527.462-.8517.812-1.197.35-.35.763-.6253 1.239-.826s.999-.301 1.568-.301c.761 0 1.433.1703 2.016.511.588.3407 1.048.7957 1.379 1.365.336.5647.504 1.1877.504 1.869 0 .4947-.096.9683-.287 1.421s-.462.854-.812 1.204c-.345.3453-.756.6183-1.232.819s-.999.301-1.568.301zm0-1.771c.359 0 .681-.0793.966-.238.285-.1633.509-.392.672-.686.163-.2987.245-.6487.245-1.05 0-.406-.082-.756-.245-1.05-.159-.294-.38-.5203-.665-.679-.285-.1633-.609-.245-.973-.245s-.691.0817-.98.245c-.285.1587-.509.385-.672.679-.159.294-.238.644-.238 1.05s.082.756.245 1.05.387.5227.672.686c.285.1587.609.238.973.238zm8.674 1.771c-.77 0-1.446-.1563-2.03-.469-.583-.3127-1.038-.749-1.365-1.309-.326-.56-.49-1.2157-.49-1.967 0-.546.094-1.0477.28-1.505.192-.4573.458-.8517.798-1.183.346-.336.749-.595 1.211-.777.467-.1867.978-.28 1.533-.28.612 0 1.153.1073 1.624.322.476.2147.871.5157 1.183.903.313.3827.53.833.651 1.351.126.518.138 1.0803.035 1.687h-5.418c0 .3267.084.6113.252.854.173.2427.413.434.721.574.313.1353.677.203 1.092.203.411 0 .803-.056 1.176-.168.374-.112.726-.2823 1.057-.511l.679 1.4c-.224.1727-.504.3267-.84.462-.336.1307-.693.231-1.071.301-.373.0747-.732.112-1.078.112zm-1.869-4.634h3.339c-.014-.4153-.161-.7443-.441-.987-.275-.2427-.655-.364-1.141-.364-.485 0-.889.1213-1.211.364-.317.2427-.499.5717-.546.987zm15.082 4.424v-5.432h-2.296v.637c0 .5693-.044 1.1083-.133 1.617s-.243.9683-.462 1.379c-.219.406-.523.7513-.91 1.036-.383.28-.873.4783-1.47.595l-.42-1.414c.425-.0933.747-.2893.966-.588s.366-.672.441-1.12c.079-.4527.119-.9543.119-1.505v-2.275h6.209v7.07zm-5.691 2.1v-3.682l1.12.091.322-.147h7.714v3.738h-1.869v-2.1h-5.418v2.1zm13.588-1.89c-.77 0-1.447-.1563-2.03-.469-.584-.3127-1.039-.749-1.365-1.309-.327-.56-.49-1.2157-.49-1.967 0-.546.093-1.0477.28-1.505.191-.4573.457-.8517.798-1.183.345-.336.749-.595 1.211-.777.466-.1867.977-.28 1.533-.28.611 0 1.152.1073 1.624.322.476.2147.87.5157 1.183.903.312.3827.529.833.651 1.351.126.518.137 1.0803.035 1.687h-5.418c0 .3267.084.6113.252.854.172.2427.413.434.721.574.312.1353.676.203 1.092.203.41 0 .802-.056 1.176-.168.373-.112.725-.2823 1.057-.511l.679 1.4c-.224.1727-.504.3267-.84.462-.336.1307-.693.231-1.071.301-.374.0747-.733.112-1.078.112zm-1.869-4.634h3.339c-.014-.4153-.161-.7443-.441-.987-.276-.2427-.656-.364-1.141-.364-.486 0-.889.1213-1.211.364-.318.2427-.5.5717-.546.987zm6.782 4.424v-7.07h1.743.042l2.968 4.438-.875.014 2.8-4.452h1.785v7.07h-1.806l.021-4.795.399.161-2.226 3.367h-1.232l-2.352-3.374.385-.154.035 4.795zm13.77.21c-.761 0-1.435-.1703-2.023-.511s-1.05-.7933-1.386-1.358c-.331-.5693-.497-1.1947-.497-1.876 0-.4993.096-.973.287-1.421.191-.4527.462-.8517.812-1.197.35-.35.763-.6253 1.239-.826s.999-.301 1.568-.301c.761 0 1.433.1703 2.016.511.588.3407 1.048.7957 1.379 1.365.336.5647.504 1.1877.504 1.869 0 .4947-.096.9683-.287 1.421s-.462.854-.812 1.204c-.345.3453-.756.6183-1.232.819s-.999.301-1.568.301zm0-1.771c.359 0 .681-.0793.966-.238.285-.1633.509-.392.672-.686.163-.2987.245-.6487.245-1.05 0-.406-.082-.756-.245-1.05-.159-.294-.38-.5203-.665-.679-.285-.1633-.609-.245-.973-.245s-.691.0817-.98.245c-.285.1587-.509.385-.672.679-.159.294-.238.644-.238 1.05s.082.756.245 1.05.387.5227.672.686c.285.1587.609.238.973.238z" fill="#1a1a18"></path></g><path d="m.5 44c0-24.0244 19.4756-43.5 43.5-43.5h255c24.024 0 43.5 19.4756 43.5 43.5s-19.476 43.5-43.5 43.5h-103.074-151.926c-24.0244 0-43.5-19.4756-43.5-43.5z" stroke="url(#b)"></path></svg> 