<?xml version="1.0" encoding="UTF-8"?> <svg xmlns="http://www.w3.org/2000/svg" xmlns:xlink="http://www.w3.org/1999/xlink" fill="none" height="117" viewBox="0 0 330 117" width="330"><filter id="a" color-interpolation-filters="sRGB" filterUnits="userSpaceOnUse" height="120" width="330" x="0" y="2"><feFlood flood-opacity="0" result="BackgroundImageFix"></feFlood><feColorMatrix in="SourceAlpha" result="hardAlpha" type="matrix" values="0 0 0 0 0 0 0 0 0 0 0 0 0 0 0 0 0 0 127 0"></feColorMatrix><feOffset dy="2"></feOffset><feGaussianBlur stdDeviation="10"></feGaussianBlur><feComposite in2="hardAlpha" operator="out"></feComposite><feColorMatrix type="matrix" values="0 0 0 0 0.996078 0 0 0 0 0.541176 0 0 0 0 0.0156863 0 0 0 0.4 0"></feColorMatrix><feBlend in2="BackgroundImageFix" mode="normal" result="effect1_dropShadow_316_6420"></feBlend><feBlend in="SourceGraphic" in2="effect1_dropShadow_316_6420" mode="normal" result="shape"></feBlend><feColorMatrix in="SourceAlpha" result="hardAlpha" type="matrix" values="0 0 0 0 0 0 0 0 0 0 0 0 0 0 0 0 0 0 127 0"></feColorMatrix><feOffset dy="8"></feOffset><feGaussianBlur stdDeviation="6"></feGaussianBlur><feComposite in2="hardAlpha" k2="-1" k3="1" operator="arithmetic"></feComposite><feColorMatrix type="matrix" values="0 0 0 0 1 0 0 0 0 1 0 0 0 0 1 0 0 0 0.3 0"></feColorMatrix><feBlend in2="shape" mode="normal" result="effect2_innerShadow_316_6420"></feBlend></filter><linearGradient id="b" gradientUnits="userSpaceOnUse" x1="42" x2="165" y1="4.49999" y2="117"><stop offset="0" stop-color="#fe8a04"></stop><stop offset="1" stop-color="#fe8a04" stop-opacity="0"></stop></linearGradient><g filter="url(#a)"><rect fill="#fe8a04" height="80" rx="40" shape-rendering="crispEdges" width="290" x="20" y="20"></rect><path d="m99.2899 65.5v-11.2h2.3681v9.032h4.624v2.168zm12.4431.24c-.869 0-1.64-.1947-2.312-.584s-1.2-.9067-1.584-1.552c-.379-.6507-.568-1.3653-.568-2.144 0-.5707.109-1.112.328-1.624.219-.5173.528-.9733.928-1.368.4-.4.872-.7147 1.416-.944s1.141-.344 1.792-.344c.869 0 1.637.1947 2.304.584.672.3893 1.197.9093 1.576 1.56.384.6453.576 1.3573.576 2.136 0 .5653-.109 1.1067-.328 1.624s-.528.976-.928 1.376c-.395.3947-.864.7067-1.408.936s-1.141.344-1.792.344zm0-2.024c.411 0 .779-.0907 1.104-.272.325-.1867.581-.448.768-.784.187-.3413.28-.7413.28-1.2 0-.464-.093-.864-.28-1.2-.181-.336-.435-.5947-.76-.776-.325-.1867-.696-.28-1.112-.28s-.789.0933-1.12.28c-.325.1813-.581.44-.768.776-.181.336-.272.736-.272 1.2s.093.864.28 1.2.443.5973.768.784c.325.1813.696.272 1.112.272zm9.937 2.024c-.869 0-1.64-.1947-2.312-.584s-1.2-.9067-1.584-1.552c-.378-.6507-.568-1.3653-.568-2.144 0-.5707.11-1.112.328-1.624.219-.5173.528-.9733.928-1.368.4-.4.872-.7147 1.416-.944s1.142-.344 1.792-.344c.87 0 1.638.1947 2.304.584.672.3893 1.198.9093 1.576 1.56.384.6453.576 1.3573.576 2.136 0 .5653-.109 1.1067-.328 1.624-.218.5173-.528.976-.928 1.376-.394.3947-.864.7067-1.408.936s-1.141.344-1.792.344zm0-2.024c.411 0 .779-.0907 1.104-.272.326-.1867.582-.448.768-.784.187-.3413.28-.7413.28-1.2 0-.464-.093-.864-.28-1.2-.181-.336-.434-.5947-.76-.776-.325-.1867-.696-.28-1.112-.28s-.789.0933-1.12.28c-.325.1813-.581.44-.768.776-.181.336-.272.736-.272 1.2s.094.864.28 1.2c.187.336.443.5973.768.784.326.1813.696.272 1.112.272zm6.06 1.784v-11.52h2.336v6.32l2.672-2.88h2.72l-2.832 3.208 3.144 4.872h-2.776l-2.064-3.344-.864.896v2.448zm12.132 0 4.24-11.2h2.696l4.304 11.2h-2.664l-.872-2.4h-4.264l-.848 2.4zm4-4.4h3.128l-1.584-4.208zm11.497 4.64c-.864 0-1.547-.2427-2.048-.728-.496-.4907-.744-1.2293-.744-2.216v-7.704h2.336v2.328h2.008v1.872h-2.008v3.08c0 .4747.098.808.296 1 .197.192.461.288.792.288.17 0 .336-.0187.496-.056.165-.0427.317-.1013.456-.176l.328 1.84c-.24.1333-.528.2453-.864.336-.331.0907-.68.136-1.048.136zm-4.432-6.448v-1.872h1.872v1.872zm10.732 6.208 4.24-11.2h2.696l4.304 11.2h-2.664l-.872-2.4h-4.264l-.848 2.4zm4-4.4h3.128l-1.584-4.208zm8.477 4.4v-11.52h2.336v11.52zm4.609 0v-11.52h2.336v11.52zm13.759.24c-1.157 0-2.176-.2373-3.056-.712-.88-.48-1.565-1.1547-2.056-2.024-.49-.8747-.736-1.9013-.736-3.08 0-.8587.144-1.6453.432-2.36s.696-1.3333 1.224-1.856c.528-.528 1.15-.9333 1.864-1.216.72-.288 1.507-.432 2.36-.432.907 0 1.675.1147 2.304.344.63.2293 1.195.552 1.696.968l-1.2 1.944c-.325-.32-.712-.56-1.16-.72-.442-.16-.936-.24-1.48-.24-.554 0-1.053.0827-1.496.248-.437.1653-.81.4027-1.12.712-.304.304-.538.6747-.704 1.112-.16.432-.24.92-.24 1.464 0 .7467.144 1.384.432 1.912.294.5227.71.9253 1.248 1.208.544.2827 1.192.424 1.944.424.523 0 1.035-.08 1.536-.24.507-.16.984-.416 1.432-.768l1.088 1.992c-.528.4053-1.146.728-1.856.968-.709.2347-1.528.352-2.456.352zm8.044 0c-.544 0-1.029-.104-1.456-.312-.426-.208-.762-.504-1.008-.888-.245-.3893-.368-.8533-.368-1.392 0-.4587.115-.8667.344-1.224.23-.3573.576-.6507 1.04-.88.47-.2347 1.062-.392 1.776-.472.72-.0853 1.568-.08 2.544.016l.024 1.488c-.581-.096-1.096-.1413-1.544-.136-.442.0053-.816.0507-1.12.136-.298.0853-.525.2107-.68.376-.154.16-.232.3547-.232.584 0 .3147.118.5573.352.728.235.1653.552.248.952.248.347 0 .659-.0613.936-.184.278-.1227.499-.3013.664-.536.166-.2347.248-.52.248-.856v-1.936c0-.3147-.066-.5893-.2-.824-.128-.24-.33-.424-.608-.552-.277-.1333-.64-.2-1.088-.2-.416 0-.832.064-1.248.192-.41.1227-.786.312-1.128.568l-.616-1.632c.518-.3307 1.067-.5707 1.648-.72.582-.1547 1.15-.232 1.704-.232.758 0 1.419.12 1.984.36.566.24 1.003.6107 1.312 1.112.315.496.472 1.128.472 1.896v5.032h-2.032v-.888c-.266.3627-.632.6427-1.096.84-.464.192-.989.288-1.576.288zm9.797-.008c-.72 0-1.384-.0933-1.992-.28-.608-.192-1.128-.4533-1.56-.784l.76-1.632c.422.288.878.5147 1.368.68.491.16.963.24 1.416.24.448 0 .792-.0667 1.032-.2.246-.1387.368-.336.368-.592 0-.2293-.109-.3973-.328-.504-.213-.112-.629-.232-1.248-.36-1.066-.192-1.845-.4933-2.336-.904-.49-.416-.736-.9867-.736-1.712 0-.512.142-.9627.424-1.352.288-.3893.683-.6907 1.184-.904.502-.2187 1.078-.328 1.728-.328.64 0 1.243.088 1.808.264.571.1707 1.059.4107 1.464.72l-.736 1.64c-.213-.1707-.458-.32-.736-.448-.272-.128-.56-.2267-.864-.296-.298-.0747-.592-.112-.88-.112-.389 0-.704.0667-.944.2-.24.128-.36.3093-.36.544s.11.408.328.52c.219.112.627.2347 1.224.368 1.115.2347 1.907.5467 2.376.936.475.384.712.9253.712 1.624 0 .5387-.146 1.008-.44 1.408-.288.4-.693.712-1.216.936-.517.2187-1.122.328-1.816.328zm9.051.008c-.88 0-1.653-.1787-2.32-.536-.666-.3573-1.186-.856-1.56-1.496-.373-.64-.56-1.3893-.56-2.248 0-.624.107-1.1973.32-1.72.219-.5227.523-.9733.912-1.352.395-.384.856-.68 1.384-.888.534-.2133 1.118-.32 1.752-.32.699 0 1.318.1227 1.856.368.544.2453.995.5893 1.352 1.032.358.4373.606.952.744 1.544.144.592.158 1.2347.04 1.928h-6.192c0 .3733.096.6987.288.976.198.2773.472.496.824.656.358.1547.774.232 1.248.232.47 0 .918-.064 1.344-.192.427-.128.83-.3227 1.208-.584l.776 1.6c-.256.1973-.576.3733-.96.528-.384.1493-.792.264-1.224.344-.426.0853-.837.128-1.232.128zm-2.136-5.296h3.816c-.016-.4747-.184-.8507-.504-1.128-.314-.2773-.749-.416-1.304-.416-.554 0-1.016.1387-1.384.416-.362.2773-.57.6533-.624 1.128zm10.679 5.288c-.72 0-1.384-.0933-1.992-.28-.608-.192-1.128-.4533-1.56-.784l.76-1.632c.421.288.877.5147 1.368.68.491.16.963.24 1.416.24.448 0 .792-.0667 1.032-.2.245-.1387.368-.336.368-.592 0-.2293-.109-.3973-.328-.504-.213-.112-.629-.232-1.248-.36-1.067-.192-1.845-.4933-2.336-.904-.491-.416-.736-.9867-.736-1.712 0-.512.141-.9627.424-1.352.288-.3893.683-.6907 1.184-.904.501-.2187 1.077-.328 1.728-.328.64 0 1.243.088 1.808.264.571.1707 1.059.4107 1.464.72l-.736 1.64c-.213-.1707-.459-.32-.736-.448-.272-.128-.56-.2267-.864-.296-.299-.0747-.592-.112-.88-.112-.389 0-.704.0667-.944.2-.24.128-.36.3093-.36.544s.109.408.328.52.627.2347 1.224.368c1.115.2347 1.907.5467 2.376.936.475.384.712.9253.712 1.624 0 .5387-.147 1.008-.44 1.408-.288.4-.693.712-1.216.936-.517.2187-1.123.328-1.816.328z" fill="#1a1a18"></path></g><path d="m.5 58.5c0-32.0325 25.9675-58 58-58h213c32.033 0 58 25.9675 58 58s-25.967 58-58 58h-83-130c-32.0325 0-58-25.9675-58-58z" stroke="url(#b)"></path></svg> 