<?xml version="1.0" encoding="UTF-8"?> <svg xmlns="http://www.w3.org/2000/svg" xmlns:xlink="http://www.w3.org/1999/xlink" fill="none" height="122" viewBox="0 0 330 122" width="330"><filter id="a" color-interpolation-filters="sRGB" filterUnits="userSpaceOnUse" height="120" width="330" x="0" y="2"><feFlood flood-opacity="0" result="BackgroundImageFix"></feFlood><feColorMatrix in="SourceAlpha" result="hardAlpha" type="matrix" values="0 0 0 0 0 0 0 0 0 0 0 0 0 0 0 0 0 0 127 0"></feColorMatrix><feOffset dy="2"></feOffset><feGaussianBlur stdDeviation="10"></feGaussianBlur><feComposite in2="hardAlpha" operator="out"></feComposite><feColorMatrix type="matrix" values="0 0 0 0 1 0 0 0 0 0.831373 0 0 0 0 0.0352941 0 0 0 0.4 0"></feColorMatrix><feBlend in2="BackgroundImageFix" mode="normal" result="effect1_dropShadow_316_6751"></feBlend><feBlend in="SourceGraphic" in2="effect1_dropShadow_316_6751" mode="normal" result="shape"></feBlend><feColorMatrix in="SourceAlpha" result="hardAlpha" type="matrix" values="0 0 0 0 0 0 0 0 0 0 0 0 0 0 0 0 0 0 127 0"></feColorMatrix><feOffset dy="8"></feOffset><feGaussianBlur stdDeviation="6"></feGaussianBlur><feComposite in2="hardAlpha" k2="-1" k3="1" operator="arithmetic"></feComposite><feColorMatrix type="matrix" values="0 0 0 0 1 0 0 0 0 1 0 0 0 0 1 0 0 0 0.3 0"></feColorMatrix><feBlend in2="shape" mode="normal" result="effect2_innerShadow_316_6751"></feBlend></filter><linearGradient id="b" gradientUnits="userSpaceOnUse" x1="42" x2="165" y1="4.49999" y2="117"><stop offset="0" stop-color="#ffd409"></stop><stop offset="1" stop-color="#ffd409" stop-opacity="0"></stop></linearGradient><g filter="url(#a)"><rect fill="#ffd409" height="80" rx="40" shape-rendering="crispEdges" width="290" x="20" y="20"></rect><path d="m127.274 56.5v-11.2h9.488v11.2h-2.368v-9.04h-4.752v9.04zm15.787.24c-.869 0-1.64-.1947-2.312-.584s-1.2-.9067-1.584-1.552c-.379-.6507-.568-1.3653-.568-2.144 0-.5707.109-1.112.328-1.624.219-.5173.528-.9733.928-1.368.4-.4.872-.7147 1.416-.944s1.141-.344 1.792-.344c.869 0 1.637.1947 2.304.584.672.3893 1.197.9093 1.576 1.56.384.6453.576 1.3573.576 2.136 0 .5653-.109 1.1067-.328 1.624s-.528.976-.928 1.376c-.395.3947-.864.7067-1.408.936s-1.141.344-1.792.344zm0-2.024c.411 0 .779-.0907 1.104-.272.325-.1867.581-.448.768-.784.187-.3413.28-.7413.28-1.2 0-.464-.093-.864-.28-1.2-.181-.336-.435-.5947-.76-.776-.325-.1867-.696-.28-1.112-.28s-.789.0933-1.12.28c-.325.1813-.581.44-.768.776-.181.336-.272.736-.272 1.2s.093.864.28 1.2.443.5973.768.784c.325.1813.696.272 1.112.272zm5.963 1.96-.776-2.072c.55-.1387.95-.3467 1.2-.624.251-.2773.408-.6533.472-1.128.07-.48.104-1.0907.104-1.832v-2.6h6.936v8.08h-2.336v-6.208h-2.464v.728c0 .832-.048 1.568-.144 2.208-.09.64-.25 1.192-.48 1.656-.229.4587-.546.8347-.952 1.128-.405.2933-.925.5147-1.56.664zm11.238 3.4c-.342 0-.678-.0347-1.008-.104-.331-.0693-.643-.184-.936-.344l.504-1.968c.17.096.357.1707.56.224.208.0533.4.08.576.08.32 0 .584-.0693.792-.208s.362-.3653.464-.68l.168-.512-3.152-8.144h2.536l1.936 5.776 1.88-5.776h2.472l-3.392 9c-.267.672-.574 1.2-.92 1.584-.347.3893-.728.664-1.144.824-.416.1653-.862.248-1.336.248zm12.959-3.576v-2.936c-.363.0907-.701.1627-1.016.216-.315.048-.637.072-.968.072-.699 0-1.299-.112-1.8-.336s-.888-.568-1.16-1.032c-.272-.4693-.408-1.0693-.408-1.8v-2.264h2.336v1.952c0 .5013.112.8827.336 1.144.229.2613.616.392 1.16.392.325 0 .605-.016.84-.048.24-.032.467-.0667.68-.104v-3.336h2.336v8.08zm4.603 0v-8.08h2.232v4.768l3.784-4.768h2.08v8.08h-2.24v-4.832l-3.792 4.832zm12.047 0v-6.208h-2.44v-1.872h7.208v1.872h-2.432v6.208zm6.265 0v-8.08h2.336v6.408h1.224c.469 0 .827-.0987 1.072-.296s.368-.48.368-.848-.115-.6533-.344-.856c-.224-.208-.544-.312-.96-.312h-1.616v-1.656h1.8c1.093 0 1.952.2373 2.576.712.629.4747.944 1.1787.944 2.112 0 .5867-.147 1.0907-.44 1.512-.293.416-.709.7387-1.248.968-.533.224-1.163.336-1.888.336zm-112.0781 18v-8.08h8.072v8.08h-2.336v-6.208h-3.4v6.208zm14.1197.24c-.88 0-1.6533-.1787-2.32-.536-.6666-.3573-1.1866-.856-1.56-1.496-.3733-.64-.56-1.3893-.56-2.248 0-.624.1067-1.1973.32-1.72.2187-.5227.5227-.9733.912-1.352.3947-.384.856-.68 1.384-.888.5334-.2133 1.1174-.32 1.752-.32.6987 0 1.3174.1227 1.856.368.5444.2453.9944.5893 1.3524 1.032.357.4373.605.952.744 1.544.144.592.157 1.2347.04 1.928h-6.1924c0 .3733.096.6987.288.976.1974.2773.472.496.824.656.3574.1547.7734.232 1.248.232.4694 0 .9174-.064 1.344-.192.4264-.128.8294-.3227 1.2084-.584l.776 1.6c-.256.1973-.576.3733-.96.528-.384.1493-.7924.264-1.2244.344-.4266.0853-.8373.128-1.232.128zm-2.136-5.296h3.816c-.016-.4747-.184-.8507-.504-1.128-.3146-.2773-.7493-.416-1.304-.416-.5546 0-1.016.1387-1.384.416-.3626.2773-.5706.6533-.624 1.128zm7.7504 8.416v-11.44h2.032v.992c.31-.368.702-.664 1.176-.888.48-.2293 1.048-.344 1.704-.344.779 0 1.472.1813 2.08.544.608.3573 1.086.8587 1.432 1.504.347.6453.52 1.3893.52 2.232 0 .6027-.101 1.1627-.304 1.68-.197.5173-.477.9707-.84 1.36-.362.3893-.792.6933-1.288.912s-1.042.328-1.64.328c-.528 0-1.005-.088-1.432-.264-.421-.176-.792-.424-1.112-.744v4.128zm4.48-5.144c.416 0 .787-.0907 1.112-.272.331-.1867.587-.448.768-.784.187-.336.28-.736.28-1.2s-.093-.864-.28-1.2c-.186-.336-.442-.5947-.768-.776-.325-.1867-.696-.28-1.112-.28-.41 0-.778.0933-1.104.28-.325.1813-.581.44-.768.776-.186.336-.28.736-.28 1.2s.091.864.272 1.2c.187.336.443.5973.768.784.326.1813.696.272 1.112.272zm9.937 2.024c-.853 0-1.616-.1867-2.288-.56s-1.202-.8827-1.592-1.528c-.384-.6453-.576-1.376-.576-2.192 0-.6133.115-1.1787.344-1.696.23-.5227.55-.976.96-1.36.416-.3893.902-.6907 1.456-.904.555-.2133 1.155-.32 1.8-.32.592 0 1.139.08 1.64.24.507.16.966.4 1.376.72l-1.056 1.744c-.256-.2293-.541-.4-.856-.512-.309-.112-.637-.168-.984-.168-.485 0-.904.088-1.256.264-.346.176-.616.432-.808.768-.186.336-.28.7413-.28 1.216 0 .7093.208 1.264.624 1.664.422.4.995.6 1.72.6.39 0 .755-.072 1.096-.216.347-.144.654-.344.92-.6l.984 1.768c-.442.3307-.946.592-1.512.784-.565.192-1.136.288-1.712.288zm8.321 0c-.87 0-1.64-.1947-2.312-.584s-1.2-.9067-1.584-1.552c-.379-.6507-.568-1.3653-.568-2.144 0-.5707.109-1.112.328-1.624.218-.5173.528-.9733.928-1.368.4-.4.872-.7147 1.416-.944s1.141-.344 1.792-.344c.869 0 1.637.1947 2.304.584.672.3893 1.197.9093 1.576 1.56.384.6453.576 1.3573.576 2.136 0 .5653-.11 1.1067-.328 1.624-.219.5173-.528.976-.928 1.376-.395.3947-.864.7067-1.408.936s-1.142.344-1.792.344zm0-2.024c.41 0 .778-.0907 1.104-.272.325-.1867.581-.448.768-.784.186-.3413.28-.7413.28-1.2 0-.464-.094-.864-.28-1.2-.182-.336-.435-.5947-.76-.776-.326-.1867-.696-.28-1.112-.28s-.79.0933-1.12.28c-.326.1813-.582.44-.768.776-.182.336-.272.736-.272 1.2s.093.864.28 1.2c.186.336.442.5973.768.784.325.1813.696.272 1.112.272zm6.059 1.784v-8.08h2.336v2.976h3.408v-2.976h2.336v8.08h-2.336v-3.232h-3.408v3.232zm13.728.24c-.774 0-1.464-.1787-2.072-.536-.608-.3627-1.088-.8667-1.44-1.512-.347-.6453-.52-1.3893-.52-2.232 0-.6347.098-1.2133.296-1.736.202-.5227.485-.9733.848-1.352.362-.384.789-.6773 1.28-.88.496-.208 1.032-.312 1.608-.312.768 0 1.416.1653 1.944.496.533.3307.922.7627 1.168 1.296l-.328.504v-2.056h2.032v8.08h-2.032v-2.056l.328.504c-.246.5333-.635.9653-1.168 1.296-.528.3307-1.176.496-1.944.496zm.376-2.024c.405 0 .768-.0907 1.088-.272.32-.1867.57-.448.752-.784.186-.336.28-.736.28-1.2s-.094-.864-.28-1.2c-.182-.336-.432-.5947-.752-.776-.32-.1867-.683-.28-1.088-.28-.4 0-.76.0933-1.08.28-.32.1813-.574.44-.76.776-.182.336-.272.736-.272 1.2s.09.864.272 1.2c.186.336.44.5973.76.784.32.1813.68.272 1.08.272zm6.613 1.96-.776-2.072c.549-.1387.949-.3467 1.2-.624.25-.2773.408-.6533.472-1.128.069-.48.104-1.0907.104-1.832v-2.6h6.936v8.08h-2.336v-6.208h-2.464v.728c0 .832-.048 1.568-.144 2.208-.091.64-.251 1.192-.48 1.656-.23.4587-.547.8347-.952 1.128-.406.2933-.926.5147-1.56.664zm10.205-.176v-8.08h2.336v6.408h1.224c.469 0 .827-.0987 1.072-.296s.368-.48.368-.848-.115-.6533-.344-.856c-.224-.208-.544-.312-.96-.312h-1.616v-1.656h1.8c1.093 0 1.952.2373 2.576.712.629.4747.944 1.1787.944 2.112 0 .5867-.147 1.0907-.44 1.512-.293.416-.709.7387-1.248.968-.533.224-1.163.336-1.888.336zm9.094 0v-8.08h2.336v2.976h3.408v-2.976h2.336v8.08h-2.336v-3.232h-3.408v3.232zm14.159.24c-.869 0-1.64-.1947-2.312-.584s-1.2-.9067-1.584-1.552c-.379-.6507-.568-1.3653-.568-2.144 0-.5707.109-1.112.328-1.624.219-.5173.528-.9733.928-1.368.4-.4.872-.7147 1.416-.944s1.141-.344 1.792-.344c.869 0 1.637.1947 2.304.584.672.3893 1.197.9093 1.576 1.56.384.6453.576 1.3573.576 2.136 0 .5653-.109 1.1067-.328 1.624s-.528.976-.928 1.376c-.395.3947-.864.7067-1.408.936s-1.141.344-1.792.344zm0-2.024c.411 0 .779-.0907 1.104-.272.325-.1867.581-.448.768-.784.187-.3413.28-.7413.28-1.2 0-.464-.093-.864-.28-1.2-.181-.336-.435-.5947-.76-.776-.325-.1867-.696-.28-1.112-.28s-.789.0933-1.12.28c-.325.1813-.581.44-.768.776-.181.336-.272.736-.272 1.2s.093.864.28 1.2.443.5973.768.784c.325.1813.696.272 1.112.272zm9.914 2.024c-.88 0-1.654-.1787-2.32-.536-.667-.3573-1.187-.856-1.56-1.496-.374-.64-.56-1.3893-.56-2.248 0-.624.106-1.1973.32-1.72.218-.5227.522-.9733.912-1.352.394-.384.856-.68 1.384-.888.533-.2133 1.117-.32 1.752-.32.698 0 1.317.1227 1.856.368.544.2453.994.5893 1.352 1.032.357.4373.605.952.744 1.544.144.592.157 1.2347.04 1.928h-6.192c0 .3733.096.6987.288.976.197.2773.472.496.824.656.357.1547.773.232 1.248.232.469 0 .917-.064 1.344-.192.426-.128.829-.3227 1.208-.584l.776 1.6c-.256.1973-.576.3733-.96.528-.384.1493-.792.264-1.224.344-.427.0853-.838.128-1.232.128zm-2.136-5.296h3.816c-.016-.4747-.184-.8507-.504-1.128-.315-.2773-.75-.416-1.304-.416-.555 0-1.016.1387-1.384.416-.363.2773-.571.6533-.624 1.128zm17.236 5.056v-6.208h-2.624v.728c0 .6507-.051 1.2667-.152 1.848s-.277 1.1067-.528 1.576c-.251.464-.597.8587-1.04 1.184-.437.32-.997.5467-1.68.68l-.48-1.616c.485-.1067.853-.3307 1.104-.672s.419-.768.504-1.28c.091-.5173.136-1.0907.136-1.72v-2.6h7.096v8.08zm-6.504 2.4v-4.208l1.28.104.368-.168h8.816v4.272h-2.136v-2.4h-6.192v2.4zm15.529-2.16c-.88 0-1.654-.1787-2.32-.536-.667-.3573-1.187-.856-1.56-1.496-.374-.64-.56-1.3893-.56-2.248 0-.624.106-1.1973.32-1.72.218-.5227.522-.9733.912-1.352.394-.384.856-.68 1.384-.888.533-.2133 1.117-.32 1.752-.32.698 0 1.317.1227 1.856.368.544.2453.994.5893 1.352 1.032.357.4373.605.952.744 1.544.144.592.157 1.2347.04 1.928h-6.192c0 .3733.096.6987.288.976.197.2773.472.496.824.656.357.1547.773.232 1.248.232.469 0 .917-.064 1.344-.192.426-.128.829-.3227 1.208-.584l.776 1.6c-.256.1973-.576.3733-.96.528-.384.1493-.792.264-1.224.344-.427.0853-.838.128-1.232.128zm-2.136-5.296h3.816c-.016-.4747-.184-.8507-.504-1.128-.315-.2773-.75-.416-1.304-.416-.555 0-1.016.1387-1.384.416-.363.2773-.571.6533-.624 1.128zm7.75 5.056v-8.08h1.992.048l3.392 5.072-1 .016 3.2-5.088h2.04v8.08h-2.064l.024-5.48.456.184-2.544 3.848h-1.408l-2.688-3.856.44-.176.04 5.48zm15.738.24c-.87 0-1.64-.1947-2.312-.584s-1.2-.9067-1.584-1.552c-.379-.6507-.568-1.3653-.568-2.144 0-.5707.109-1.112.328-1.624.218-.5173.528-.9733.928-1.368.4-.4.872-.7147 1.416-.944s1.141-.344 1.792-.344c.869 0 1.637.1947 2.304.584.672.3893 1.197.9093 1.576 1.56.384.6453.576 1.3573.576 2.136 0 .5653-.11 1.1067-.328 1.624-.219.5173-.528.976-.928 1.376-.395.3947-.864.7067-1.408.936s-1.142.344-1.792.344zm0-2.024c.41 0 .778-.0907 1.104-.272.325-.1867.581-.448.768-.784.186-.3413.28-.7413.28-1.2 0-.464-.094-.864-.28-1.2-.182-.336-.435-.5947-.76-.776-.326-.1867-.696-.28-1.112-.28s-.79.0933-1.12.28c-.326.1813-.582.44-.768.776-.182.336-.272.736-.272 1.2s.093.864.28 1.2c.186.336.442.5973.768.784.325.1813.696.272 1.112.272z" fill="#1a1a18"></path></g><path d="m.5 58.5c0-32.0325 25.9675-58 58-58h213c32.033 0 58 25.9675 58 58s-25.967 58-58 58h-83-130c-32.0325 0-58-25.9675-58-58z" stroke="url(#b)"></path></svg> 