<?xml version="1.0" encoding="UTF-8"?> <svg xmlns="http://www.w3.org/2000/svg" xmlns:xlink="http://www.w3.org/1999/xlink" fill="none" height="108" viewBox="0 0 343 108" width="343"><filter id="a" color-interpolation-filters="sRGB" filterUnits="userSpaceOnUse" height="105" width="343" x="0" y="3"><feFlood flood-opacity="0" result="BackgroundImageFix"></feFlood><feColorMatrix in="SourceAlpha" result="hardAlpha" type="matrix" values="0 0 0 0 0 0 0 0 0 0 0 0 0 0 0 0 0 0 127 0"></feColorMatrix><feOffset dy="2"></feOffset><feGaussianBlur stdDeviation="10"></feGaussianBlur><feComposite in2="hardAlpha" operator="out"></feComposite><feColorMatrix type="matrix" values="0 0 0 0 0.0313726 0 0 0 0 0.815686 0 0 0 0 0.439216 0 0 0 0.4 0"></feColorMatrix><feBlend in2="BackgroundImageFix" mode="normal" result="effect1_dropShadow_317_1908"></feBlend><feBlend in="SourceGraphic" in2="effect1_dropShadow_317_1908" mode="normal" result="shape"></feBlend><feColorMatrix in="SourceAlpha" result="hardAlpha" type="matrix" values="0 0 0 0 0 0 0 0 0 0 0 0 0 0 0 0 0 0 127 0"></feColorMatrix><feOffset dy="8"></feOffset><feGaussianBlur stdDeviation="6"></feGaussianBlur><feComposite in2="hardAlpha" k2="-1" k3="1" operator="arithmetic"></feComposite><feColorMatrix type="matrix" values="0 0 0 0 1 0 0 0 0 1 0 0 0 0 1 0 0 0 0.3 0"></feColorMatrix><feBlend in2="shape" mode="normal" result="effect2_innerShadow_317_1908"></feBlend></filter><linearGradient id="b" gradientUnits="userSpaceOnUse" x1="43.6546" x2="155.405" y1="4.07692" y2="121.339"><stop offset="0" stop-color="#08d070"></stop><stop offset="1" stop-color="#08d070" stop-opacity="0"></stop></linearGradient><g filter="url(#a)"><rect fill="#08d070" height="65" rx="32.5" shape-rendering="crispEdges" width="303" x="20" y="21"></rect><path d="m93.7352 59v-11.2h4.168c1.12 0 2.016.24 2.6878.72.678.4747 1.016 1.1787 1.016 2.112 0 .3467-.074.6693-.224.968-.149.2987-.346.5627-.592.792-.245.224-.514.4-.8078.528.6078.2027 1.1018.552 1.4798 1.048.384.496.576 1.0933.576 1.792 0 .6507-.162 1.2187-.488 1.704-.325.4853-.786.864-1.384 1.136-.5971.2667-1.3091.4-2.1358.4zm2.368-1.776h1.576c.64 0 1.1173-.128 1.432-.384s.472-.6427.472-1.16c0-.5013-.1547-.8853-.464-1.152-.3093-.272-.7733-.408-1.392-.408h-1.624zm0-4.768h1.472c.3573 0 .664-.0587.92-.176.2613-.1173.4613-.2853.6-.504.144-.224.216-.4933.216-.808 0-.448-.1547-.792-.464-1.032-.304-.24-.7413-.36-1.312-.36h-1.432zm11.6058 6.784c-.869 0-1.64-.1947-2.312-.584s-1.2-.9067-1.584-1.552c-.378-.6507-.568-1.3653-.568-2.144 0-.5707.11-1.112.328-1.624.219-.5173.528-.9733.928-1.368.4-.4.872-.7147 1.416-.944s1.142-.344 1.792-.344c.87 0 1.638.1947 2.304.584.672.3893 1.198.9093 1.576 1.56.384.6453.576 1.3573.576 2.136 0 .5653-.109 1.1067-.328 1.624-.218.5173-.528.976-.928 1.376-.394.3947-.864.7067-1.408.936s-1.141.344-1.792.344zm0-2.024c.411 0 .779-.0907 1.104-.272.326-.1867.582-.448.768-.784.187-.3413.28-.7413.28-1.2 0-.464-.093-.864-.28-1.2-.181-.336-.434-.5947-.76-.776-.325-.1867-.696-.28-1.112-.28s-.789.0933-1.12.28c-.325.1813-.581.44-.768.776-.181.336-.272.736-.272 1.2s.094.864.28 1.2c.187.336.443.5973.768.784.326.1813.696.272 1.112.272zm9.938 2.024c-.869 0-1.64-.1947-2.312-.584s-1.2-.9067-1.584-1.552c-.379-.6507-.568-1.3653-.568-2.144 0-.5707.109-1.112.328-1.624.219-.5173.528-.9733.928-1.368.4-.4.872-.7147 1.416-.944s1.141-.344 1.792-.344c.869 0 1.637.1947 2.304.584.672.3893 1.197.9093 1.576 1.56.384.6453.576 1.3573.576 2.136 0 .5653-.109 1.1067-.328 1.624s-.528.976-.928 1.376c-.395.3947-.864.7067-1.408.936s-1.141.344-1.792.344zm0-2.024c.411 0 .779-.0907 1.104-.272.325-.1867.581-.448.768-.784.187-.3413.28-.7413.28-1.2 0-.464-.093-.864-.28-1.2-.181-.336-.435-.5947-.76-.776-.325-.1867-.696-.28-1.112-.28s-.789.0933-1.12.28c-.325.1813-.581.44-.768.776-.181.336-.272.736-.272 1.2s.093.864.28 1.2.443.5973.768.784c.325.1813.696.272 1.112.272zm6.059 1.784v-11.52h2.336v6.32l2.672-2.88h2.72l-2.832 3.208 3.144 4.872h-2.776l-2.064-3.344-.864.896v2.448zm15.428.24c-.544 0-1.029-.104-1.456-.312-.426-.208-.762-.504-1.008-.888-.245-.3893-.368-.8533-.368-1.392 0-.4587.115-.8667.344-1.224.23-.3573.576-.6507 1.04-.88.47-.2347 1.062-.392 1.776-.472.72-.0853 1.568-.08 2.544.016l.024 1.488c-.581-.096-1.096-.1413-1.544-.136-.442.0053-.816.0507-1.12.136-.298.0853-.525.2107-.68.376-.154.16-.232.3547-.232.584 0 .3147.118.5573.352.728.235.1653.552.248.952.248.347 0 .659-.0613.936-.184.278-.1227.499-.3013.664-.536.166-.2347.248-.52.248-.856v-1.936c0-.3147-.066-.5893-.2-.824-.128-.24-.33-.424-.608-.552-.277-.1333-.64-.2-1.088-.2-.416 0-.832.064-1.248.192-.41.1227-.786.312-1.128.568l-.616-1.632c.518-.3307 1.067-.5707 1.648-.72.582-.1547 1.15-.232 1.704-.232.758 0 1.419.12 1.984.36.566.24 1.003.6107 1.312 1.112.315.496.472 1.128.472 1.896v5.032h-2.032v-.888c-.266.3627-.632.6427-1.096.84-.464.192-.989.288-1.576.288zm16.019 0c-1.158 0-2.176-.2373-3.056-.712-.88-.48-1.566-1.1547-2.056-2.024-.491-.8747-.736-1.9013-.736-3.08 0-.8587.144-1.6453.432-2.36s.696-1.3333 1.224-1.856c.528-.528 1.149-.9333 1.864-1.216.72-.288 1.506-.432 2.36-.432.906 0 1.674.1147 2.304.344.629.2293 1.194.552 1.696.968l-1.2 1.944c-.326-.32-.712-.56-1.16-.72-.443-.16-.936-.24-1.48-.24-.555 0-1.054.0827-1.496.248-.438.1653-.811.4027-1.12.712-.304.304-.539.6747-.704 1.112-.16.432-.24.92-.24 1.464 0 .7467.144 1.384.432 1.912.293.5227.709.9253 1.248 1.208.544.2827 1.192.424 1.944.424.522 0 1.034-.08 1.536-.24.506-.16.984-.416 1.432-.768l1.088 1.992c-.528.4053-1.147.728-1.856.968-.71.2347-1.528.352-2.456.352zm9.588 0c-.87 0-1.64-.1947-2.312-.584s-1.2-.9067-1.584-1.552c-.379-.6507-.568-1.3653-.568-2.144 0-.5707.109-1.112.328-1.624.218-.5173.528-.9733.928-1.368.4-.4.872-.7147 1.416-.944s1.141-.344 1.792-.344c.869 0 1.637.1947 2.304.584.672.3893 1.197.9093 1.576 1.56.384.6453.576 1.3573.576 2.136 0 .5653-.11 1.1067-.328 1.624-.219.5173-.528.976-.928 1.376-.395.3947-.864.7067-1.408.936s-1.142.344-1.792.344zm0-2.024c.41 0 .778-.0907 1.104-.272.325-.1867.581-.448.768-.784.186-.3413.28-.7413.28-1.2 0-.464-.094-.864-.28-1.2-.182-.336-.435-.5947-.76-.776-.326-.1867-.696-.28-1.112-.28s-.79.0933-1.12.28c-.326.1813-.582.44-.768.776-.182.336-.272.736-.272 1.2s.093.864.28 1.2c.186.336.442.5973.768.784.325.1813.696.272 1.112.272zm6.059 1.784v-8.08h2.336v.912c.309-.4053.675-.6987 1.096-.88.427-.1813.872-.272 1.336-.272.752 0 1.371.1493 1.856.448.491.2933.853.6747 1.088 1.144.24.4693.36.9627.36 1.48v5.248h-2.336v-4.52c0-.512-.144-.92-.432-1.224-.283-.304-.693-.456-1.232-.456-.341 0-.643.0773-.904.232-.261.1493-.467.36-.616.632-.144.272-.216.5867-.216.944v4.392zm13.194.232c-.72 0-1.384-.0933-1.992-.28-.608-.192-1.128-.4533-1.56-.784l.76-1.632c.421.288.877.5147 1.368.68.49.16.962.24 1.416.24.448 0 .792-.0667 1.032-.2.245-.1387.368-.336.368-.592 0-.2293-.11-.3973-.328-.504-.214-.112-.63-.232-1.248-.36-1.067-.192-1.846-.4933-2.336-.904-.491-.416-.736-.9867-.736-1.712 0-.512.141-.9627.424-1.352.288-.3893.682-.6907 1.184-.904.501-.2187 1.077-.328 1.728-.328.64 0 1.242.088 1.808.264.57.1707 1.058.4107 1.464.72l-.736 1.64c-.214-.1707-.459-.32-.736-.448-.272-.128-.56-.2267-.864-.296-.299-.0747-.592-.112-.88-.112-.39 0-.704.0667-.944.2-.24.128-.36.3093-.36.544s.109.408.328.52c.218.112.626.2347 1.224.368 1.114.2347 1.906.5467 2.376.936.474.384.712.9253.712 1.624 0 .5387-.147 1.008-.44 1.408-.288.4-.694.712-1.216.936-.518.2187-1.123.328-1.816.328zm8.427.008c-.731 0-1.336-.144-1.816-.432-.475-.288-.83-.6827-1.064-1.184-.235-.5013-.352-1.0693-.352-1.704v-5h2.336v4.624c0 .48.13.8613.392 1.144.266.2827.648.424 1.144.424.32 0 .602-.0693.848-.208.245-.144.434-.344.568-.6.138-.256.208-.552.208-.888v-4.496h2.336v8.08h-2.032v-.888c-.278.32-.622.5893-1.032.808-.406.2133-.918.32-1.536.32zm6.879-.24v-11.52h2.336v11.52zm8.113.24c-.864 0-1.546-.2427-2.048-.728-.496-.4907-.744-1.2293-.744-2.216v-7.704h2.336v2.328h2.008v1.872h-2.008v3.08c0 .4747.099.808.296 1 .198.192.462.288.792.288.171 0 .336-.0187.496-.056.166-.0427.318-.1013.456-.176l.328 1.84c-.24.1333-.528.2453-.864.336-.33.0907-.68.136-1.048.136zm-4.432-6.448v-1.872h1.872v1.872zm10.263 6.448c-.544 0-1.03-.104-1.456-.312-.427-.208-.763-.504-1.008-.888-.246-.3893-.368-.8533-.368-1.392 0-.4587.114-.8667.344-1.224.229-.3573.576-.6507 1.04-.88.469-.2347 1.061-.392 1.776-.472.72-.0853 1.568-.08 2.544.016l.024 1.488c-.582-.096-1.096-.1413-1.544-.136-.443.0053-.816.0507-1.12.136-.299.0853-.526.2107-.68.376-.155.16-.232.3547-.232.584 0 .3147.117.5573.352.728.234.1653.552.248.952.248.346 0 .658-.0613.936-.184.277-.1227.498-.3013.664-.536.165-.2347.248-.52.248-.856v-1.936c0-.3147-.067-.5893-.2-.824-.128-.24-.331-.424-.608-.552-.278-.1333-.64-.2-1.088-.2-.416 0-.832.064-1.248.192-.411.1227-.787.312-1.128.568l-.616-1.632c.517-.3307 1.066-.5707 1.648-.72.581-.1547 1.149-.232 1.704-.232.757 0 1.418.12 1.984.36.565.24 1.002.6107 1.312 1.112.314.496.472 1.128.472 1.896v5.032h-2.032v-.888c-.267.3627-.632.6427-1.096.84-.464.192-.99.288-1.576.288zm10.216 0c-.864 0-1.546-.2427-2.048-.728-.496-.4907-.744-1.2293-.744-2.216v-7.704h2.336v2.328h2.008v1.872h-2.008v3.08c0 .4747.099.808.296 1 .198.192.462.288.792.288.171 0 .336-.0187.496-.056.166-.0427.318-.1013.456-.176l.328 1.84c-.24.1333-.528.2453-.864.336-.33.0907-.68.136-1.048.136zm-4.432-6.448v-1.872h1.872v1.872zm8.006 6.208v-8.08h2.336v8.08zm1.168-9.36c-.389 0-.725-.12-1.008-.36-.282-.2453-.424-.5707-.424-.976 0-.4107.142-.736.424-.976.283-.2453.619-.368 1.008-.368.39 0 .726.1227 1.008.368.283.24.424.5653.424.976 0 .4053-.141.7307-.424.976-.282.24-.618.36-1.008.36zm7.242 9.6c-.87 0-1.64-.1947-2.312-.584s-1.2-.9067-1.584-1.552c-.379-.6507-.568-1.3653-.568-2.144 0-.5707.109-1.112.328-1.624.218-.5173.528-.9733.928-1.368.4-.4.872-.7147 1.416-.944s1.141-.344 1.792-.344c.869 0 1.637.1947 2.304.584.672.3893 1.197.9093 1.576 1.56.384.6453.576 1.3573.576 2.136 0 .5653-.11 1.1067-.328 1.624-.219.5173-.528.976-.928 1.376-.395.3947-.864.7067-1.408.936s-1.142.344-1.792.344zm0-2.024c.41 0 .778-.0907 1.104-.272.325-.1867.581-.448.768-.784.186-.3413.28-.7413.28-1.2 0-.464-.094-.864-.28-1.2-.182-.336-.435-.5947-.76-.776-.326-.1867-.696-.28-1.112-.28s-.79.0933-1.12.28c-.326.1813-.582.44-.768.776-.182.336-.272.736-.272 1.2s.093.864.28 1.2c.186.336.442.5973.768.784.325.1813.696.272 1.112.272zm6.059 1.784v-8.08h2.336v.912c.31-.4053.675-.6987 1.096-.88.427-.1813.872-.272 1.336-.272.752 0 1.371.1493 1.856.448.491.2933.854.6747 1.088 1.144.24.4693.36.9627.36 1.48v5.248h-2.336v-4.52c0-.512-.144-.92-.432-1.224-.282-.304-.693-.456-1.232-.456-.341 0-.642.0773-.904.232-.261.1493-.466.36-.616.632-.144.272-.216.5867-.216.944v4.392z" fill="#fff"></path></g><path d="m.5 53c0-28.9949 23.505-52.5 52.5-52.5h237c28.995 0 52.5 23.5051 52.5 52.5s-23.505 52.5-52.5 52.5h-94.074-142.926c-28.995 0-52.5-23.5051-52.5-52.5z" stroke="url(#b)"></path></svg> 