<?xml version="1.0" encoding="UTF-8"?> <svg xmlns="http://www.w3.org/2000/svg" xmlns:xlink="http://www.w3.org/1999/xlink" fill="none" height="43" viewBox="0 0 36 43" width="36"><filter id="a" color-interpolation-filters="sRGB" filterUnits="userSpaceOnUse" height="42.6668" width="34.6673" x=".666341" y=".333252"><feFlood flood-opacity="0" result="BackgroundImageFix"></feFlood><feColorMatrix in="SourceAlpha" result="hardAlpha" type="matrix" values="0 0 0 0 0 0 0 0 0 0 0 0 0 0 0 0 0 0 127 0"></feColorMatrix><feOffset dy="2.66667"></feOffset><feGaussianBlur stdDeviation="1.33333"></feGaussianBlur><feColorMatrix type="matrix" values="0 0 0 0 0 0 0 0 0 0 0 0 0 0 0 0 0 0 0.4 0"></feColorMatrix><feBlend in2="BackgroundImageFix" mode="normal" result="effect1_dropShadow_316_7307"></feBlend><feBlend in="SourceGraphic" in2="effect1_dropShadow_316_7307" mode="normal" result="shape"></feBlend></filter><g filter="url(#a)"><path d="m4 17.3723c0 .6053 9.3333 19.6277 9.3333 19.6277h15.2728s1.8921-6.0767 2.5458-10.2406c.6202-3.9502.8485-9.3872.8481-10.2405-.0012-2.4032-5.0909-3.4135-5.0909-3.4135s.1248-1.613.0004-1.7068c-3.3939-2.56016-5.0913 0-5.0913 0s-.8587-1.2852-1.697-1.70673c-1.1855-.59616-3.3939 0-3.3939 0v-6.82703c0-.85343-.8079-1.40868-1.697-1.70676-.6287-.210774-1.0683-.210774-1.697 0-.8891.29808-1.6965.85333-1.6969 1.70676-.0002.4186 0 14.50746 0 17.06756 0 2.3566-3.97505-3.9978-4.24246-4.2669-.84807-.8534-3.39394-.8534-3.39394 1.7068z" fill="#fff"></path><path d="m16.7273 16.5189v-6.82703m0 0s0-4.16091 0-6.82703c0-.85343-.8079-1.40868-1.697-1.70676-.6287-.210774-1.0683-.210774-1.697 0-.8891.29808-1.6965.85333-1.6969 1.70676-.0002.4186 0 14.50746 0 17.06756 0 2.3566-3.97505-3.9978-4.24246-4.2669-.84807-.8534-3.39394-.8534-3.39394 1.7068 0 .6053 9.3333 19.6277 9.3333 19.6277h15.2728s1.8921-6.0767 2.5458-10.2406c.6202-3.9502.8485-9.3872.8481-10.2405-.0012-2.4032-5.0909-3.4135-5.0909-3.4135m-10.1818-3.41353s2.2084-.59616 3.3939 0c.8383.42153 1.697 1.70673 1.697 1.70673m0 0v5.1203m0-5.1203s1.6974-2.56016 5.0913 0c.1244.0938-.0004 1.7068-.0004 1.7068m0 5.1203v-5.1203" stroke="#000" stroke-width="1.33333"></path></g></svg> 