<?xml version="1.0" encoding="UTF-8"?> <svg xmlns="http://www.w3.org/2000/svg" xmlns:xlink="http://www.w3.org/1999/xlink" fill="none" height="109" viewBox="0 0 126 109" width="126"><filter id="a" color-interpolation-filters="sRGB" filterUnits="userSpaceOnUse" height="109" width="110" x="-24" y="0"><feFlood flood-opacity="0" result="BackgroundImageFix"></feFlood><feBlend in="SourceGraphic" in2="BackgroundImageFix" mode="normal" result="shape"></feBlend><feGaussianBlur result="effect1_foregroundBlur_2076_156" stdDeviation="20"></feGaussianBlur></filter><g filter="url(#a)" opacity=".6"><ellipse cx="31" cy="54.5" fill="#08d070" rx="15" ry="14.5"></ellipse></g><g fill="#fff"><path d="m115.423 62.1874v-3.0729h4.181c.773 0 1.377-.2267 1.814-.6801.436-.4534.655-1.0075.655-1.6624 0-.4534-.101-.8564-.303-1.209-.201-.3526-.487-.6297-.856-.8312-.353-.2015-.789-.3023-1.31-.3023h-4.181v-2.9973h3.854c.655 0 1.183-.1595 1.587-.4786.403-.3358.604-.8396.604-1.5113 0-.6548-.201-1.1418-.604-1.4608-.404-.3359-.932-.5038-1.587-.5038h-3.854v-3.0729h4.609c1.142 0 2.108.2099 2.897.6297.806.4198 1.419.9823 1.839 1.6876.419.7052.629 1.486.629 2.3424 0 1.0915-.352 2.0151-1.058 2.7707-.705.7556-1.746 1.2762-3.123 1.5616l.101-1.3349c1.494.2854 2.645.8648 3.451 1.7379.822.8732 1.234 1.9479 1.234 3.2241 0 .9739-.244 1.8555-.731 2.6447-.47.7724-1.158 1.3853-2.065 1.8387-.89.4534-1.965.6801-3.224.6801zm-3.023 0v-17.7826h3.905v17.7826z"></path><path d="m101.868 62.4645c-1.461 0-2.754-.3107-3.879-.932-1.1083-.6213-1.9815-1.4777-2.6196-2.5692-.6213-1.1082-.9319-2.3676-.9319-3.7781v-10.7804h3.9797v11.0071c0 .7052.1511 1.3181.4534 1.8387.3022.5205.7136.9235 1.2344 1.209.537.2687 1.125.403 1.763.403.672 0 1.259-.1343 1.763-.403.504-.2855.898-.6801 1.184-1.1838.302-.5206.453-1.1335.453-1.8388v-11.0322h3.98v10.8056c0 1.4105-.311 2.6615-.932 3.7529-.621 1.0915-1.486 1.9479-2.594 2.5692-1.109.6213-2.393.932-3.854.932z"></path><path d="m76.3145 62.1874v-17.7826h3.9544v17.7826zm11.007 0v-17.7826h3.9797v17.7826zm-8.6394-7.4304v-3.4256h9.9492v3.4256z"></path><path d="m68.9355 62.1874v-17.7826h3.9545v17.7826z"></path><path d="m49.4238 62.1874 7.0526-17.7826h3.5767l6.977 17.7826h-4.1812l-5.3398-14.7601h1.4357l-5.4154 14.7601zm4.0049-3.2241v-3.224h9.6973v3.224z"></path></g><path clip-rule="evenodd" d="m39.6909 66.2256c-2.51 2.3648-5.8018 3.1587-8.964 3.1587-3.1527 0-6.535-.7866-9.1865-3.0316-2.754-2.3318-4.222-5.8141-4.222-10.1422 0-4.1772 1.3507-8.7091 3.4528-12.2509 1.9675-3.315 5.356-6.9596 9.9557-6.9596 4.7018 0 7.8973 3.7766 9.6714 7.1027 1.9005 3.5633 3.0074 8.0491 3.0074 12.1078 0 4.1358-1.1638 7.6117-3.7148 10.0151zm-8.964-.4395c5.2166 0 9.0806-2.6201 9.0806-9.5756 0-6.9554-3.864-15.6122-9.0806-15.6122s-9.8103 8.6568-9.8103 15.6122c0 6.9555 4.5937 9.5756 9.8103 9.5756z" fill="#08d070" fill-rule="evenodd"></path></svg> 