<?xml version="1.0" encoding="UTF-8"?> <svg xmlns="http://www.w3.org/2000/svg" width="330" height="122" viewBox="0 0 330 122" fill="none"><g filter="url(#filter0_di_316_6203)"><rect x="20" y="20" width="290" height="80" rx="40" fill="#08D070" shape-rendering="crispEdges"></rect><path d="M122.423 56.74C121.532 56.74 120.721 56.6333 119.991 56.42C119.265 56.2013 118.623 55.8813 118.063 55.46L119.111 53.604C119.489 53.9347 119.948 54.196 120.487 54.388C121.025 54.58 121.585 54.676 122.167 54.676C122.647 54.676 123.06 54.612 123.407 54.484C123.759 54.3507 124.031 54.1693 124.223 53.94C124.415 53.7053 124.511 53.4333 124.511 53.124C124.511 52.6493 124.343 52.2893 124.007 52.044C123.676 51.7987 123.161 51.676 122.463 51.676H120.223V49.844H122.279C122.673 49.844 123.012 49.7907 123.295 49.684C123.577 49.5773 123.796 49.4227 123.951 49.22C124.105 49.0173 124.183 48.7747 124.183 48.492C124.183 48.2147 124.105 47.9827 123.951 47.796C123.801 47.604 123.577 47.46 123.279 47.364C122.98 47.2627 122.612 47.212 122.175 47.212C121.668 47.212 121.175 47.2973 120.695 47.468C120.215 47.6387 119.809 47.8733 119.479 48.172L118.399 46.436C118.895 45.9987 119.497 45.66 120.207 45.42C120.921 45.18 121.684 45.06 122.495 45.06C123.332 45.06 124.052 45.18 124.655 45.42C125.257 45.6547 125.721 45.9933 126.047 46.436C126.372 46.8787 126.535 47.4093 126.535 48.028C126.535 48.364 126.463 48.6893 126.319 49.004C126.175 49.3133 125.98 49.5933 125.735 49.844C125.489 50.0947 125.22 50.2893 124.927 50.428C125.551 50.6413 126.047 50.9827 126.415 51.452C126.788 51.9213 126.972 52.5053 126.967 53.204C126.967 53.8813 126.777 54.4867 126.399 55.02C126.02 55.5533 125.489 55.9747 124.807 56.284C124.124 56.588 123.329 56.74 122.423 56.74ZM132.192 56.74C131.418 56.74 130.728 56.5613 130.12 56.204C129.512 55.8413 129.032 55.3373 128.68 54.692C128.333 54.0467 128.16 53.3027 128.16 52.46C128.16 51.8253 128.258 51.2467 128.456 50.724C128.658 50.2013 128.941 49.7507 129.304 49.372C129.666 48.988 130.093 48.6947 130.584 48.492C131.08 48.284 131.616 48.18 132.192 48.18C132.96 48.18 133.608 48.3453 134.136 48.676C134.669 49.0067 135.058 49.4387 135.304 49.972L134.976 50.476V48.42H137.008V56.5H134.976V54.444L135.304 54.948C135.058 55.4813 134.669 55.9133 134.136 56.244C133.608 56.5747 132.96 56.74 132.192 56.74ZM132.568 54.716C132.973 54.716 133.336 54.6253 133.656 54.444C133.976 54.2573 134.226 53.996 134.408 53.66C134.594 53.324 134.688 52.924 134.688 52.46C134.688 51.996 134.594 51.596 134.408 51.26C134.226 50.924 133.976 50.6653 133.656 50.484C133.336 50.2973 132.973 50.204 132.568 50.204C132.168 50.204 131.808 50.2973 131.488 50.484C131.168 50.6653 130.914 50.924 130.728 51.26C130.546 51.596 130.456 51.996 130.456 52.46C130.456 52.924 130.546 53.324 130.728 53.66C130.914 53.996 131.168 54.2573 131.488 54.444C131.808 54.6253 132.168 54.716 132.568 54.716ZM139.277 56.5V48.42H147.349V56.5H145.013V50.292H141.613V56.5H139.277ZM149.62 56.5V48.42H151.852V53.188L155.636 48.42H157.716V56.5H155.476V51.668L151.684 56.5H149.62ZM163.787 56.74C162.934 56.74 162.171 56.5533 161.499 56.18C160.827 55.8067 160.297 55.2973 159.907 54.652C159.523 54.0067 159.331 53.276 159.331 52.46C159.331 51.8467 159.446 51.2813 159.675 50.764C159.905 50.2413 160.225 49.788 160.635 49.404C161.051 49.0147 161.537 48.7133 162.091 48.5C162.646 48.2867 163.246 48.18 163.891 48.18C164.483 48.18 165.03 48.26 165.531 48.42C166.038 48.58 166.497 48.82 166.907 49.14L165.851 50.884C165.595 50.6547 165.31 50.484 164.995 50.372C164.686 50.26 164.358 50.204 164.011 50.204C163.526 50.204 163.107 50.292 162.755 50.468C162.409 50.644 162.139 50.9 161.947 51.236C161.761 51.572 161.667 51.9773 161.667 52.452C161.667 53.1613 161.875 53.716 162.291 54.116C162.713 54.516 163.286 54.716 164.011 54.716C164.401 54.716 164.766 54.644 165.107 54.5C165.454 54.356 165.761 54.156 166.027 53.9L167.011 55.668C166.569 55.9987 166.065 56.26 165.499 56.452C164.934 56.644 164.363 56.74 163.787 56.74ZM171.676 56.74C170.903 56.74 170.212 56.5613 169.604 56.204C168.996 55.8413 168.516 55.3373 168.164 54.692C167.817 54.0467 167.644 53.3027 167.644 52.46C167.644 51.8253 167.743 51.2467 167.94 50.724C168.143 50.2013 168.425 49.7507 168.788 49.372C169.151 48.988 169.577 48.6947 170.068 48.492C170.564 48.284 171.1 48.18 171.676 48.18C172.444 48.18 173.092 48.3453 173.62 48.676C174.153 49.0067 174.543 49.4387 174.788 49.972L174.46 50.476V48.42H176.492V56.5H174.46V54.444L174.788 54.948C174.543 55.4813 174.153 55.9133 173.62 56.244C173.092 56.5747 172.444 56.74 171.676 56.74ZM172.052 54.716C172.457 54.716 172.82 54.6253 173.14 54.444C173.46 54.2573 173.711 53.996 173.892 53.66C174.079 53.324 174.172 52.924 174.172 52.46C174.172 51.996 174.079 51.596 173.892 51.26C173.711 50.924 173.46 50.6653 173.14 50.484C172.82 50.2973 172.457 50.204 172.052 50.204C171.652 50.204 171.292 50.2973 170.972 50.484C170.652 50.6653 170.399 50.924 170.212 51.26C170.031 51.596 169.94 51.996 169.94 52.46C169.94 52.924 170.031 53.324 170.212 53.66C170.399 53.996 170.652 54.2573 170.972 54.444C171.292 54.6253 171.652 54.716 172.052 54.716ZM180.433 56.5V50.292H177.993V48.42H185.201V50.292H182.769V56.5H180.433ZM186.699 56.5V48.42H189.035V54.828H190.259C190.728 54.828 191.085 54.7293 191.331 54.532C191.576 54.3347 191.699 54.052 191.699 53.684C191.699 53.316 191.584 53.0307 191.355 52.828C191.131 52.62 190.811 52.516 190.395 52.516H188.779V50.86H190.579C191.672 50.86 192.531 51.0973 193.155 51.572C193.784 52.0467 194.099 52.7507 194.099 53.684C194.099 54.2707 193.952 54.7747 193.659 55.196C193.365 55.612 192.949 55.9347 192.411 56.164C191.877 56.388 191.248 56.5 190.523 56.5H186.699ZM199.584 56.74C198.731 56.74 197.968 56.5533 197.296 56.18C196.624 55.8067 196.094 55.2973 195.704 54.652C195.32 54.0067 195.128 53.276 195.128 52.46C195.128 51.8467 195.243 51.2813 195.472 50.764C195.702 50.2413 196.022 49.788 196.432 49.404C196.848 49.0147 197.334 48.7133 197.888 48.5C198.443 48.2867 199.043 48.18 199.688 48.18C200.28 48.18 200.827 48.26 201.328 48.42C201.835 48.58 202.294 48.82 202.704 49.14L201.648 50.884C201.392 50.6547 201.107 50.484 200.792 50.372C200.483 50.26 200.155 50.204 199.808 50.204C199.323 50.204 198.904 50.292 198.552 50.468C198.206 50.644 197.936 50.9 197.744 51.236C197.558 51.572 197.464 51.9773 197.464 52.452C197.464 53.1613 197.672 53.716 198.088 54.116C198.51 54.516 199.083 54.716 199.808 54.716C200.198 54.716 200.563 54.644 200.904 54.5C201.251 54.356 201.558 54.156 201.824 53.9L202.808 55.668C202.366 55.9987 201.862 56.26 201.296 56.452C200.731 56.644 200.16 56.74 199.584 56.74ZM203.661 56.5L206.557 52.26L207.149 53.708C206.514 53.708 205.957 53.6067 205.477 53.404C204.997 53.2013 204.621 52.9107 204.349 52.532C204.082 52.1533 203.949 51.7 203.949 51.172C203.949 50.596 204.088 50.1053 204.365 49.7C204.648 49.2893 205.045 48.9747 205.557 48.756C206.074 48.532 206.682 48.42 207.381 48.42H211.149V56.5H208.925V50.092H207.637C207.189 50.092 206.845 50.1773 206.605 50.348C206.37 50.5187 206.253 50.7693 206.253 51.1C206.253 51.4253 206.36 51.6787 206.573 51.86C206.792 52.0413 207.104 52.132 207.509 52.132H209.165V53.732H208.077L206.229 56.5H203.661ZM94.136 74.5V66.42H96.472V69.396H99.88V66.42H102.216V74.5H99.88V71.268H96.472V74.5H94.136ZM107.863 74.74C107.09 74.74 106.399 74.5613 105.791 74.204C105.183 73.8413 104.703 73.3373 104.351 72.692C104.005 72.0467 103.831 71.3027 103.831 70.46C103.831 69.8253 103.93 69.2467 104.127 68.724C104.33 68.2013 104.613 67.7507 104.975 67.372C105.338 66.988 105.765 66.6947 106.255 66.492C106.751 66.284 107.287 66.18 107.863 66.18C108.631 66.18 109.279 66.3453 109.807 66.676C110.341 67.0067 110.73 67.4387 110.975 67.972L110.647 68.476V66.42H112.679V74.5H110.647V72.444L110.975 72.948C110.73 73.4813 110.341 73.9133 109.807 74.244C109.279 74.5747 108.631 74.74 107.863 74.74ZM108.239 72.716C108.645 72.716 109.007 72.6253 109.327 72.444C109.647 72.2573 109.898 71.996 110.079 71.66C110.266 71.324 110.359 70.924 110.359 70.46C110.359 69.996 110.266 69.596 110.079 69.26C109.898 68.924 109.647 68.6653 109.327 68.484C109.007 68.2973 108.645 68.204 108.239 68.204C107.839 68.204 107.479 68.2973 107.159 68.484C106.839 68.6653 106.586 68.924 106.399 69.26C106.218 69.596 106.127 69.996 106.127 70.46C106.127 70.924 106.218 71.324 106.399 71.66C106.586 71.996 106.839 72.2573 107.159 72.444C107.479 72.6253 107.839 72.716 108.239 72.716ZM123.978 74.5L121.418 70.252L123.97 66.42H126.442L123.922 70.132L126.754 74.5H123.978ZM118.714 74.5V66.42H121.05V69.396H123.498V71.268H121.05V74.5H118.714ZM131.764 74.74C130.895 74.74 130.124 74.5453 129.452 74.156C128.78 73.7667 128.252 73.2493 127.868 72.604C127.489 71.9533 127.3 71.2387 127.3 70.46C127.3 69.8893 127.409 69.348 127.628 68.836C127.847 68.3187 128.156 67.8627 128.556 67.468C128.956 67.068 129.428 66.7533 129.972 66.524C130.516 66.2947 131.113 66.18 131.764 66.18C132.633 66.18 133.401 66.3747 134.068 66.764C134.74 67.1533 135.265 67.6733 135.644 68.324C136.028 68.9693 136.22 69.6813 136.22 70.46C136.22 71.0253 136.111 71.5667 135.892 72.084C135.673 72.6013 135.364 73.06 134.964 73.46C134.569 73.8547 134.1 74.1667 133.556 74.396C133.012 74.6253 132.415 74.74 131.764 74.74ZM131.764 72.716C132.175 72.716 132.543 72.6253 132.868 72.444C133.193 72.2573 133.449 71.996 133.636 71.66C133.823 71.3187 133.916 70.9187 133.916 70.46C133.916 69.996 133.823 69.596 133.636 69.26C133.455 68.924 133.201 68.6653 132.876 68.484C132.551 68.2973 132.18 68.204 131.764 68.204C131.348 68.204 130.975 68.2973 130.644 68.484C130.319 68.6653 130.063 68.924 129.876 69.26C129.695 69.596 129.604 69.996 129.604 70.46C129.604 70.924 129.697 71.324 129.884 71.66C130.071 71.996 130.327 72.2573 130.652 72.444C130.977 72.6253 131.348 72.716 131.764 72.716ZM137.824 74.5V66.42H140.16V69.396H143.568V66.42H145.904V74.5H143.568V71.268H140.16V74.5H137.824ZM151.975 74.74C151.122 74.74 150.359 74.5533 149.687 74.18C149.015 73.8067 148.484 73.2973 148.095 72.652C147.711 72.0067 147.519 71.276 147.519 70.46C147.519 69.8467 147.634 69.2813 147.863 68.764C148.092 68.2413 148.412 67.788 148.823 67.404C149.239 67.0147 149.724 66.7133 150.279 66.5C150.834 66.2867 151.434 66.18 152.079 66.18C152.671 66.18 153.218 66.26 153.719 66.42C154.226 66.58 154.684 66.82 155.095 67.14L154.039 68.884C153.783 68.6547 153.498 68.484 153.183 68.372C152.874 68.26 152.546 68.204 152.199 68.204C151.714 68.204 151.295 68.292 150.943 68.468C150.596 68.644 150.327 68.9 150.135 69.236C149.948 69.572 149.855 69.9773 149.855 70.452C149.855 71.1613 150.063 71.716 150.479 72.116C150.9 72.516 151.474 72.716 152.199 72.716C152.588 72.716 152.954 72.644 153.295 72.5C153.642 72.356 153.948 72.156 154.215 71.9L155.199 73.668C154.756 73.9987 154.252 74.26 153.687 74.452C153.122 74.644 152.551 74.74 151.975 74.74ZM157.684 78.076C157.342 78.076 157.006 78.0413 156.676 77.972C156.345 77.9027 156.033 77.788 155.74 77.628L156.244 75.66C156.414 75.756 156.601 75.8307 156.804 75.884C157.012 75.9373 157.204 75.964 157.38 75.964C157.7 75.964 157.964 75.8947 158.172 75.756C158.38 75.6173 158.534 75.3907 158.636 75.076L158.804 74.564L155.652 66.42H158.188L160.124 72.196L162.004 66.42H164.476L161.084 75.42C160.817 76.092 160.51 76.62 160.164 77.004C159.817 77.3933 159.436 77.668 159.02 77.828C158.604 77.9933 158.158 78.076 157.684 78.076ZM165.321 74.676L164.545 72.604C165.095 72.4653 165.495 72.2573 165.745 71.98C165.996 71.7027 166.153 71.3267 166.217 70.852C166.287 70.372 166.321 69.7613 166.321 69.02V66.42H173.257V74.5H170.921V68.292H168.457V69.02C168.457 69.852 168.409 70.588 168.313 71.228C168.223 71.868 168.063 72.42 167.833 72.884C167.604 73.3427 167.287 73.7187 166.881 74.012C166.476 74.3053 165.956 74.5267 165.321 74.676ZM175.527 74.5V66.42H177.863V72.828H179.087C179.556 72.828 179.913 72.7293 180.159 72.532C180.404 72.3347 180.527 72.052 180.527 71.684C180.527 71.316 180.412 71.0307 180.183 70.828C179.959 70.62 179.639 70.516 179.223 70.516H177.607V68.86H179.407C180.5 68.86 181.359 69.0973 181.983 69.572C182.612 70.0467 182.927 70.7507 182.927 71.684C182.927 72.2707 182.78 72.7747 182.487 73.196C182.193 73.612 181.777 73.9347 181.239 74.164C180.705 74.388 180.076 74.5 179.351 74.5H175.527ZM185.371 74.5V68.292H182.931V66.42H190.139V68.292H187.707V74.5H185.371ZM195.004 74.74C194.231 74.74 193.54 74.5613 192.932 74.204C192.324 73.8413 191.844 73.3373 191.492 72.692C191.145 72.0467 190.972 71.3027 190.972 70.46C190.972 69.8253 191.071 69.2467 191.268 68.724C191.471 68.2013 191.753 67.7507 192.116 67.372C192.479 66.988 192.905 66.6947 193.396 66.492C193.892 66.284 194.428 66.18 195.004 66.18C195.772 66.18 196.42 66.3453 196.948 66.676C197.481 67.0067 197.871 67.4387 198.116 67.972L197.788 68.476V66.42H199.82V74.5H197.788V72.444L198.116 72.948C197.871 73.4813 197.481 73.9133 196.948 74.244C196.42 74.5747 195.772 74.74 195.004 74.74ZM195.38 72.716C195.785 72.716 196.148 72.6253 196.468 72.444C196.788 72.2573 197.039 71.996 197.22 71.66C197.407 71.324 197.5 70.924 197.5 70.46C197.5 69.996 197.407 69.596 197.22 69.26C197.039 68.924 196.788 68.6653 196.468 68.484C196.148 68.2973 195.785 68.204 195.38 68.204C194.98 68.204 194.62 68.2973 194.3 68.484C193.98 68.6653 193.727 68.924 193.54 69.26C193.359 69.596 193.268 69.996 193.268 70.46C193.268 70.924 193.359 71.324 193.54 71.66C193.727 71.996 193.98 72.2573 194.3 72.444C194.62 72.6253 194.98 72.716 195.38 72.716ZM202.089 74.5V66.42H204.425V72.628H207.585V66.42H209.921V74.5H202.089ZM209.921 76.9V74.5H208.881V72.628H212.049V76.9H209.921ZM213.464 74.5V66.42H215.696V71.188L219.48 66.42H221.56V74.5H219.32V69.668L215.528 74.5H213.464ZM223.839 74.5V66.42H226.175L226.167 69.396H228.799V71.268H226.167L226.175 74.5H223.839ZM232.071 74.74C231.202 74.74 230.431 74.5453 229.759 74.156C229.092 73.7667 228.567 73.2493 228.183 72.604C227.804 71.9533 227.615 71.2387 227.615 70.46C227.615 69.8893 227.724 69.348 227.943 68.836C228.162 68.3187 228.468 67.8627 228.863 67.468C229.263 67.068 229.735 66.7533 230.279 66.524C230.823 66.2947 231.42 66.18 232.071 66.18C232.94 66.18 233.711 66.3747 234.383 66.764C235.055 67.1533 235.58 67.6733 235.959 68.324C236.338 68.9693 236.527 69.6813 236.527 70.46C236.527 71.0253 236.418 71.5667 236.199 72.084C235.986 72.6013 235.679 73.06 235.279 73.46C234.879 73.8547 234.407 74.1667 233.863 74.396C233.324 74.6253 232.727 74.74 232.071 74.74ZM232.071 72.716C232.487 72.716 232.858 72.6253 233.183 72.444C233.508 72.2573 233.764 71.996 233.951 71.66C234.138 71.324 234.231 70.924 234.231 70.46C234.231 69.996 234.138 69.596 233.951 69.26C233.764 68.924 233.508 68.6653 233.183 68.484C232.858 68.2973 232.487 68.204 232.071 68.204C231.655 68.204 231.284 68.2973 230.959 68.484C230.639 68.6653 230.383 68.924 230.191 69.26C230.004 69.596 229.911 69.996 229.911 70.46C229.911 70.924 230.004 71.324 230.191 71.66C230.383 71.996 230.642 72.2573 230.967 72.444C231.292 72.6253 231.66 72.716 232.071 72.716Z" fill="white"></path></g><path d="M0.5 58.5C0.5 26.4675 26.4675 0.5 58.5 0.5H271.5C303.533 0.5 329.5 26.4675 329.5 58.5C329.5 90.5325 303.533 116.5 271.5 116.5H188.5H58.5C26.4675 116.5 0.5 90.5325 0.5 58.5Z" stroke="url(#paint0_linear_316_6203)"></path><defs><filter id="filter0_di_316_6203" x="0" y="2" width="330" height="120" filterUnits="userSpaceOnUse" color-interpolation-filters="sRGB"><feFlood flood-opacity="0" result="BackgroundImageFix"></feFlood><feColorMatrix in="SourceAlpha" type="matrix" values="0 0 0 0 0 0 0 0 0 0 0 0 0 0 0 0 0 0 127 0" result="hardAlpha"></feColorMatrix><feOffset dy="2"></feOffset><feGaussianBlur stdDeviation="10"></feGaussianBlur><feComposite in2="hardAlpha" operator="out"></feComposite><feColorMatrix type="matrix" values="0 0 0 0 0.0313726 0 0 0 0 0.815686 0 0 0 0 0.439216 0 0 0 0.4 0"></feColorMatrix><feBlend mode="normal" in2="BackgroundImageFix" result="effect1_dropShadow_316_6203"></feBlend><feBlend mode="normal" in="SourceGraphic" in2="effect1_dropShadow_316_6203" result="shape"></feBlend><feColorMatrix in="SourceAlpha" type="matrix" values="0 0 0 0 0 0 0 0 0 0 0 0 0 0 0 0 0 0 127 0" result="hardAlpha"></feColorMatrix><feOffset dy="8"></feOffset><feGaussianBlur stdDeviation="6"></feGaussianBlur><feComposite in2="hardAlpha" operator="arithmetic" k2="-1" k3="1"></feComposite><feColorMatrix type="matrix" values="0 0 0 0 1 0 0 0 0 1 0 0 0 0 1 0 0 0 0.3 0"></feColorMatrix><feBlend mode="normal" in2="shape" result="effect2_innerShadow_316_6203"></feBlend></filter><linearGradient id="paint0_linear_316_6203" x1="42" y1="4.49999" x2="165" y2="117" gradientUnits="userSpaceOnUse"><stop stop-color="#08D070"></stop><stop offset="1" stop-color="#08D070" stop-opacity="0"></stop></linearGradient></defs></svg> 