<?xml version="1.0" encoding="UTF-8"?> <svg xmlns="http://www.w3.org/2000/svg" xmlns:xlink="http://www.w3.org/1999/xlink" xmlns:svgjs="http://svgjs.dev/svgjs" version="1.1" width="113" height="125"><svg xmlns="http://www.w3.org/2000/svg" width="113" height="125" viewBox="0 0 113 125" fill="none"><g opacity="0.6" filter="url(#filter0_f_2014_585)"><circle cx="50.5" cy="62.5" r="22.5" fill="#08D070"></circle></g><path fill-rule="evenodd" clip-rule="evenodd" d="M63.9656 80.3698C60.1549 83.96 55.1575 85.1654 50.3566 85.1654C45.5702 85.1654 40.4352 83.971 36.4099 80.5628C32.2287 77.0227 30 71.736 30 65.1651C30 58.8233 32.0507 51.9431 35.2421 46.566C38.2291 41.5332 43.3734 36 50.3566 36C57.4948 36 62.3462 41.7336 65.0395 46.7832C67.9249 52.1929 69.6054 59.0032 69.6054 65.1651C69.6054 71.444 67.8385 76.7209 63.9656 80.3698ZM50.3566 79.7025C58.2763 79.7025 64.1426 75.7247 64.1426 65.1651C64.1426 54.6055 58.2763 41.4628 50.3566 41.4628C42.4369 41.4628 35.4628 54.6055 35.4628 65.1651C35.4628 75.7247 42.4369 79.7025 50.3566 79.7025Z" fill="#08D070"></path><defs><filter id="SvgjsFilter1005" x="-12" y="0" width="125" height="125" filterUnits="userSpaceOnUse" color-interpolation-filters="sRGB"><feFlood flood-opacity="0" result="BackgroundImageFix"></feFlood><feBlend mode="normal" in="SourceGraphic" in2="BackgroundImageFix" result="shape"></feBlend><feGaussianBlur stdDeviation="20" result="effect1_foregroundBlur_2014_585"></feGaussianBlur></filter></defs></svg><style>@media (prefers-color-scheme: light) { :root { filter: none; } } @media (prefers-color-scheme: dark) { :root { filter: none; } } </style></svg> 