<?xml version="1.0" encoding="UTF-8"?> <svg xmlns="http://www.w3.org/2000/svg" xmlns:xlink="http://www.w3.org/1999/xlink" fill="none" height="108" viewBox="0 0 343 108" width="343"><filter id="a" color-interpolation-filters="sRGB" filterUnits="userSpaceOnUse" height="105" width="343" x="0" y="3"><feFlood flood-opacity="0" result="BackgroundImageFix"></feFlood><feColorMatrix in="SourceAlpha" result="hardAlpha" type="matrix" values="0 0 0 0 0 0 0 0 0 0 0 0 0 0 0 0 0 0 127 0"></feColorMatrix><feOffset dy="2"></feOffset><feGaussianBlur stdDeviation="10"></feGaussianBlur><feComposite in2="hardAlpha" operator="out"></feComposite><feColorMatrix type="matrix" values="0 0 0 0 0.0313726 0 0 0 0 0.815686 0 0 0 0 0.439216 0 0 0 0.4 0"></feColorMatrix><feBlend in2="BackgroundImageFix" mode="normal" result="effect1_dropShadow_317_1908"></feBlend><feBlend in="SourceGraphic" in2="effect1_dropShadow_317_1908" mode="normal" result="shape"></feBlend><feColorMatrix in="SourceAlpha" result="hardAlpha" type="matrix" values="0 0 0 0 0 0 0 0 0 0 0 0 0 0 0 0 0 0 127 0"></feColorMatrix><feOffset dy="8"></feOffset><feGaussianBlur stdDeviation="6"></feGaussianBlur><feComposite in2="hardAlpha" k2="-1" k3="1" operator="arithmetic"></feComposite><feColorMatrix type="matrix" values="0 0 0 0 1 0 0 0 0 1 0 0 0 0 1 0 0 0 0.3 0"></feColorMatrix><feBlend in2="shape" mode="normal" result="effect2_innerShadow_317_1908"></feBlend></filter><linearGradient id="b" gradientUnits="userSpaceOnUse" x1="43.6546" x2="155.405" y1="4.07692" y2="121.339"><stop offset="0" stop-color="#08d070"></stop><stop offset="1" stop-color="#08d070" stop-opacity="0"></stop></linearGradient><g filter="url(#a)"><rect fill="#08d070" height="65" rx="32.5" shape-rendering="crispEdges" width="303" x="20" y="21"></rect><path d="m119.206 51.21c-.779 0-1.489-.0933-2.128-.28-.635-.1913-1.197-.4713-1.687-.84l.917-1.624c.331.2893.733.518 1.204.686s.961.252 1.47.252c.42 0 .782-.056 1.085-.168.308-.1167.546-.2753.714-.476.168-.2053.252-.4433.252-.714 0-.4153-.147-.7303-.441-.945-.289-.2147-.74-.322-1.351-.322h-1.96v-1.603h1.799c.345 0 .642-.0467.889-.14s.439-.2287.574-.406.203-.3897.203-.637c0-.2427-.068-.4457-.203-.609-.131-.168-.327-.294-.588-.378-.261-.0887-.583-.133-.966-.133-.443 0-.875.0747-1.295.224s-.775.3547-1.064.616l-.945-1.519c.434-.3827.961-.679 1.582-.889.625-.21 1.293-.315 2.002-.315.733 0 1.363.105 1.89.315.527.2053.933.5017 1.218.889s.427.8517.427 1.393c0 .294-.063.5787-.189.854-.126.2707-.296.5157-.511.735s-.45.3897-.707.511c.546.1867.98.4853 1.302.896.327.4107.488.9217.483 1.533 0 .5927-.166 1.1223-.497 1.589s-.796.8353-1.393 1.106c-.597.266-1.293.399-2.086.399zm8.548 0c-.677 0-1.281-.1563-1.813-.469-.532-.3173-.952-.7583-1.26-1.323-.304-.5647-.455-1.2157-.455-1.953 0-.5553.086-1.0617.259-1.519.177-.4573.424-.8517.742-1.183.317-.336.69-.5927 1.12-.77.434-.182.903-.273 1.407-.273.672 0 1.239.1447 1.701.434.466.2893.807.6673 1.022 1.134l-.287.441v-1.799h1.778v7.07h-1.778v-1.799l.287.441c-.215.4667-.556.8447-1.022 1.134-.462.2893-1.029.434-1.701.434zm.329-1.771c.354 0 .672-.0793.952-.238.28-.1633.499-.392.658-.686.163-.294.245-.644.245-1.05s-.082-.756-.245-1.05c-.159-.294-.378-.5203-.658-.679-.28-.1633-.598-.245-.952-.245-.35 0-.665.0817-.945.245-.28.1587-.502.385-.665.679-.159.294-.238.644-.238 1.05s.079.756.238 1.05c.163.294.385.5227.665.686.28.1587.595.238.945.238zm9.412 1.771c-.593 0-1.132-.1027-1.617-.308-.485-.21-.903-.5087-1.253-.896-.345-.3873-.611-.8587-.798-1.414-.187-.56-.28-1.19-.28-1.89 0-.7747.065-1.4653.196-2.072.135-.6067.343-1.134.623-1.582s.644-.812 1.092-1.092c.448-.2847.987-.4877 1.617-.609l3.388-.637.308 1.701-3.297.581c-.481.0887-.861.231-1.141.427s-.488.4503-.623.763c-.135.308-.224.6837-.266 1.127.294-.3173.642-.567 1.043-.749.406-.1867.866-.28 1.379-.28.663 0 1.248.1493 1.757.448s.908.7023 1.197 1.211c.289.504.434 1.0617.434 1.673 0 .4993-.091.966-.273 1.4-.177.434-.432.8167-.763 1.148s-.726.5903-1.183.777c-.457.182-.971.273-1.54.273zm-.021-1.771c.331 0 .63-.0723.896-.217.271-.1493.483-.357.637-.623.154-.2707.231-.5903.231-.959s-.077-.6883-.231-.959-.364-.4783-.63-.623-.567-.217-.903-.217c-.341 0-.646.0723-.917.217-.266.1447-.476.3523-.63.623s-.231.5903-.231.959.077.6883.231.959c.159.266.371.4737.637.623.271.1447.574.217.91.217zm5.256 4.501v-10.01h1.778v.868c.271-.322.614-.581 1.029-.777.42-.2007.917-.301 1.491-.301.682 0 1.288.1587 1.82.476.532.3127.95.7513 1.253 1.316.304.5647.455 1.2157.455 1.953 0 .5273-.088 1.0173-.266 1.47-.172.4527-.417.8493-.735 1.19-.317.3407-.693.6067-1.127.798s-.912.287-1.435.287c-.462 0-.879-.077-1.253-.231-.368-.154-.693-.371-.973-.651v3.612zm3.92-4.501c.364 0 .689-.0793.973-.238.29-.1633.514-.392.672-.686.164-.294.245-.644.245-1.05s-.081-.756-.245-1.05c-.163-.294-.387-.5203-.672-.679-.284-.1633-.609-.245-.973-.245-.359 0-.681.0817-.966.245-.284.1587-.508.385-.672.679-.163.294-.245.644-.245 1.05s.08.756.238 1.05c.164.294.388.5227.672.686.285.1587.609.238.973.238zm8.702 1.771c-.76 0-1.435-.1703-2.023-.511s-1.05-.7933-1.386-1.358c-.331-.5693-.497-1.1947-.497-1.876 0-.4993.096-.973.287-1.421.192-.4527.462-.8517.812-1.197.35-.35.763-.6253 1.239-.826s.999-.301 1.568-.301c.761 0 1.433.1703 2.016.511.588.3407 1.048.7957 1.379 1.365.336.5647.504 1.1877.504 1.869 0 .4947-.095.9683-.287 1.421-.191.4527-.462.854-.812 1.204-.345.3453-.756.6183-1.232.819s-.998.301-1.568.301zm0-1.771c.36 0 .682-.0793.966-.238.285-.1633.509-.392.672-.686.164-.2987.245-.6487.245-1.05 0-.406-.081-.756-.245-1.05-.158-.294-.38-.5203-.665-.679-.284-.1633-.609-.245-.973-.245s-.69.0817-.98.245c-.284.1587-.508.385-.672.679-.158.294-.238.644-.238 1.05s.082.756.245 1.05c.164.294.388.5227.672.686.285.1587.609.238.973.238zm5.302 1.561v-7.07h2.044v2.604h2.982v-2.604h2.044v7.07h-2.044v-2.828h-2.982v2.828zm9.065 0v-7.07h1.953v4.172l3.311-4.172h1.82v7.07h-1.96v-4.228l-3.318 4.228zm9.078 2.94v-10.01h1.778v.868c.27-.322.613-.581 1.029-.777.42-.2007.917-.301 1.491-.301.681 0 1.288.1587 1.82.476.532.3127.949.7513 1.253 1.316.303.5647.455 1.2157.455 1.953 0 .5273-.089 1.0173-.266 1.47-.173.4527-.418.8493-.735 1.19-.318.3407-.693.6067-1.127.798s-.913.287-1.435.287c-.462 0-.88-.077-1.253-.231-.369-.154-.693-.371-.973-.651v3.612zm3.92-4.501c.364 0 .688-.0793.973-.238.289-.1633.513-.392.672-.686.163-.294.245-.644.245-1.05s-.082-.756-.245-1.05c-.164-.294-.388-.5203-.672-.679-.285-.1633-.609-.245-.973-.245-.36 0-.682.0817-.966.245-.285.1587-.509.385-.672.679-.164.294-.245.644-.245 1.05s.079.756.238 1.05c.163.294.387.5227.672.686.284.1587.609.238.973.238zm8.702 1.771c-.761 0-1.435-.1703-2.023-.511s-1.05-.7933-1.386-1.358c-.332-.5693-.497-1.1947-.497-1.876 0-.4993.095-.973.287-1.421.191-.4527.462-.8517.812-1.197.35-.35.763-.6253 1.239-.826s.998-.301 1.568-.301c.76 0 1.432.1703 2.016.511.588.3407 1.047.7957 1.379 1.365.336.5647.504 1.1877.504 1.869 0 .4947-.096.9683-.287 1.421-.192.4527-.462.854-.812 1.204-.346.3453-.756.6183-1.232.819s-.999.301-1.568.301zm0-1.771c.359 0 .681-.0793.966-.238.284-.1633.508-.392.672-.686.163-.2987.245-.6487.245-1.05 0-.406-.082-.756-.245-1.05-.159-.294-.381-.5203-.665-.679-.285-.1633-.609-.245-.973-.245s-.691.0817-.98.245c-.285.1587-.509.385-.672.679-.159.294-.238.644-.238 1.05s.081.756.245 1.05c.163.294.387.5227.672.686.284.1587.609.238.973.238zm5.302 1.561v-7.07h3.598c.83 0 1.484.1517 1.96.455.476.2987.714.7537.714 1.365 0 .3173-.082.5903-.245.819-.159.224-.376.406-.651.546-.271.14-.579.238-.924.294l-.028-.455c.667.07 1.192.273 1.575.609.382.3313.574.763.574 1.295 0 .4433-.112.826-.336 1.148-.224.3173-.551.5623-.98.735-.43.1727-.95.259-1.561.259zm1.953-1.414h1.477c.368 0 .651-.063.847-.189.2-.1307.301-.3197.301-.567 0-.238-.098-.42-.294-.546-.192-.126-.476-.189-.854-.189h-1.68v-1.344h1.505c.35 0 .62-.0537.812-.161.191-.112.287-.2893.287-.532s-.098-.4223-.294-.539c-.192-.1213-.46-.182-.805-.182h-1.302zm9.128 1.624c-.676 0-1.281-.1563-1.813-.469-.532-.3173-.952-.7583-1.26-1.323-.303-.5647-.455-1.2157-.455-1.953 0-.5553.087-1.0617.259-1.519.178-.4573.425-.8517.742-1.183.318-.336.691-.5927 1.12-.77.434-.182.903-.273 1.407-.273.672 0 1.239.1447 1.701.434.467.2893.808.6673 1.022 1.134l-.287.441v-1.799h1.778v7.07h-1.778v-1.799l.287.441c-.214.4667-.555.8447-1.022 1.134-.462.2893-1.029.434-1.701.434zm.329-1.771c.355 0 .672-.0793.952-.238.28-.1633.5-.392.658-.686.164-.294.245-.644.245-1.05s-.081-.756-.245-1.05c-.158-.294-.378-.5203-.658-.679-.28-.1633-.597-.245-.952-.245-.35 0-.665.0817-.945.245-.28.1587-.501.385-.665.679-.158.294-.238.644-.238 1.05s.08.756.238 1.05c.164.294.385.5227.665.686.28.1587.595.238.945.238zm7.334 1.561v-5.432h-2.135v-1.638h6.307v1.638h-2.128v5.432zm5.482 0v-7.07h2.044v5.607h1.071c.411 0 .723-.0863.938-.259s.322-.42.322-.742-.1-.5717-.301-.749c-.196-.182-.476-.273-.84-.273h-1.414v-1.449h1.575c.957 0 1.708.2077 2.254.623.551.4153.826 1.0313.826 1.848 0 .5133-.128.9543-.385 1.323-.257.364-.621.6463-1.092.847-.467.196-1.017.294-1.652.294zm-96.094 15-2.24-3.717 2.233-3.353h2.163l-2.205 3.248 2.478 3.822zm-4.606 0v-7.07h2.044v2.604h2.142v1.638h-2.142v2.828zm11.419.21c-.761 0-1.435-.1703-2.023-.511s-1.05-.7933-1.386-1.358c-.332-.5693-.497-1.1947-.497-1.876 0-.4993.095-.973.287-1.421.191-.4527.462-.8517.812-1.197.35-.35.763-.6253 1.239-.826s.998-.301 1.568-.301c.76 0 1.432.1703 2.016.511.588.3407 1.047.7957 1.379 1.365.336.5647.504 1.1877.504 1.869 0 .4947-.096.9683-.287 1.421-.192.4527-.462.854-.812 1.204-.346.3453-.756.6183-1.232.819s-.999.301-1.568.301zm0-1.771c.359 0 .681-.0793.966-.238.284-.1633.508-.392.672-.686.163-.2987.245-.6487.245-1.05 0-.406-.082-.756-.245-1.05-.159-.294-.381-.5203-.665-.679-.285-.1633-.609-.245-.973-.245s-.691.0817-.98.245c-.285.1587-.509.385-.672.679-.159.294-.238.644-.238 1.05s.081.756.245 1.05c.163.294.387.5227.672.686.284.1587.609.238.973.238zm5.302 1.561v-7.07h2.044v2.604h2.982v-2.604h2.044v7.07h-2.044v-2.828h-2.982v2.828zm12.382.21c-.747 0-1.414-.1633-2.002-.49s-1.052-.7723-1.393-1.337c-.336-.5647-.504-1.204-.504-1.918 0-.5367.1-1.0313.301-1.484.201-.4573.481-.854.84-1.19.364-.3407.789-.6043 1.274-.791s1.01-.28 1.575-.28c.518 0 .996.07 1.435.21.443.14.845.35 1.204.63l-.924 1.526c-.224-.2007-.474-.35-.749-.448-.271-.098-.558-.147-.861-.147-.425 0-.791.077-1.099.231-.303.154-.539.378-.707.672-.163.294-.245.6487-.245 1.064 0 .6207.182 1.106.546 1.456.369.35.87.525 1.505.525.341 0 .66-.063.959-.189.303-.126.572-.301.805-.525l.861 1.547c-.387.2893-.828.518-1.323.686s-.994.252-1.498.252zm4.995 2.919c-.298 0-.592-.0303-.882-.091-.289-.0607-.562-.161-.819-.301l.441-1.722c.15.084.313.1493.49.196.182.0467.35.07.504.07.28 0 .511-.0607.693-.182s.318-.3197.406-.595l.147-.448-2.758-7.126h2.219l1.694 5.054 1.645-5.054h2.163l-2.968 7.875c-.233.588-.501 1.05-.805 1.386-.303.3407-.637.581-1.001.721-.364.1447-.753.217-1.169.217zm6.683-2.975-.679-1.813c.481-.1213.831-.3033 1.05-.546s.357-.5717.413-.987c.061-.42.091-.9543.091-1.603v-2.275h6.069v7.07h-2.044v-5.432h-2.156v.637c0 .728-.042 1.372-.126 1.932-.079.56-.219 1.043-.42 1.449-.201.4013-.478.7303-.833.987s-.81.4503-1.365.581zm8.93-.154v-7.07h2.044v5.607h1.071c.411 0 .723-.0863.938-.259s.322-.42.322-.742-.1-.5717-.301-.749c-.196-.182-.476-.273-.84-.273h-1.414v-1.449h1.575c.957 0 1.708.2077 2.254.623.551.4153.826 1.0313.826 1.848 0 .5133-.128.9543-.385 1.323-.257.364-.621.6463-1.092.847-.467.196-1.017.294-1.652.294zm8.613 0v-5.432h-2.135v-1.638h6.307v1.638h-2.128v5.432zm8.43.21c-.677 0-1.281-.1563-1.813-.469-.532-.3173-.952-.7583-1.26-1.323-.304-.5647-.455-1.2157-.455-1.953 0-.5553.086-1.0617.259-1.519.177-.4573.424-.8517.742-1.183.317-.336.69-.5927 1.12-.77.434-.182.903-.273 1.407-.273.672 0 1.239.1447 1.701.434.466.2893.807.6673 1.022 1.134l-.287.441v-1.799h1.778v7.07h-1.778v-1.799l.287.441c-.215.4667-.556.8447-1.022 1.134-.462.2893-1.029.434-1.701.434zm.329-1.771c.354 0 .672-.0793.952-.238.28-.1633.499-.392.658-.686.163-.294.245-.644.245-1.05s-.082-.756-.245-1.05c-.159-.294-.378-.5203-.658-.679-.28-.1633-.598-.245-.952-.245-.35 0-.665.0817-.945.245-.28.1587-.502.385-.665.679-.159.294-.238.644-.238 1.05s.079.756.238 1.05c.163.294.385.5227.665.686.28.1587.595.238.945.238zm5.87 1.561v-7.07h2.044v5.432h2.765v-5.432h2.044v7.07zm6.853 2.1v-2.1h-.91v-1.638h2.772v3.738zm3.1-2.1v-7.07h1.953v4.172l3.311-4.172h1.82v7.07h-1.96v-4.228l-3.318 4.228zm9.078 0v-7.07h2.044l-.007 2.604h2.303v1.638h-2.303l.007 2.828zm7.203.21c-.76 0-1.435-.1703-2.023-.511-.583-.3407-1.043-.7933-1.379-1.358-.331-.5693-.497-1.1947-.497-1.876 0-.4993.096-.973.287-1.421.192-.4527.46-.8517.805-1.197.35-.35.763-.6253 1.239-.826s.999-.301 1.568-.301c.761 0 1.435.1703 2.023.511s1.048.7957 1.379 1.365c.332.5647.497 1.1877.497 1.869 0 .4947-.095.9683-.287 1.421-.186.4527-.455.854-.805 1.204-.35.3453-.763.6183-1.239.819-.471.2007-.994.301-1.568.301zm0-1.771c.364 0 .689-.0793.973-.238.285-.1633.509-.392.672-.686.164-.294.245-.644.245-1.05s-.081-.756-.245-1.05c-.163-.294-.387-.5203-.672-.679-.284-.1633-.609-.245-.973-.245s-.688.0817-.973.245c-.28.1587-.504.385-.672.679-.163.294-.245.644-.245 1.05s.082.756.245 1.05c.168.294.395.5227.679.686.285.1587.607.238.966.238z" fill="#fff"></path></g><path d="m.5 53c0-28.9949 23.505-52.5 52.5-52.5h237c28.995 0 52.5 23.5051 52.5 52.5s-23.505 52.5-52.5 52.5h-94.074-142.926c-28.995 0-52.5-23.5051-52.5-52.5z" stroke="url(#b)"></path></svg> 