<?xml version="1.0" encoding="UTF-8"?> <svg xmlns="http://www.w3.org/2000/svg" xmlns:xlink="http://www.w3.org/1999/xlink" fill="none" height="90" viewBox="0 0 343 90" width="343"><filter id="a" color-interpolation-filters="sRGB" filterUnits="userSpaceOnUse" height="90" width="343" x="0" y="0"><feFlood flood-opacity="0" result="BackgroundImageFix"></feFlood><feColorMatrix in="SourceAlpha" result="hardAlpha" type="matrix" values="0 0 0 0 0 0 0 0 0 0 0 0 0 0 0 0 0 0 127 0"></feColorMatrix><feOffset dy="2"></feOffset><feGaussianBlur stdDeviation="10"></feGaussianBlur><feComposite in2="hardAlpha" operator="out"></feComposite><feColorMatrix type="matrix" values="0 0 0 0 0.0313726 0 0 0 0 0.815686 0 0 0 0 0.439216 0 0 0 0.4 0"></feColorMatrix><feBlend in2="BackgroundImageFix" mode="normal" result="effect1_dropShadow_317_2303"></feBlend><feBlend in="SourceGraphic" in2="effect1_dropShadow_317_2303" mode="normal" result="shape"></feBlend><feColorMatrix in="SourceAlpha" result="hardAlpha" type="matrix" values="0 0 0 0 0 0 0 0 0 0 0 0 0 0 0 0 0 0 127 0"></feColorMatrix><feOffset dy="8"></feOffset><feGaussianBlur stdDeviation="6"></feGaussianBlur><feComposite in2="hardAlpha" k2="-1" k3="1" operator="arithmetic"></feComposite><feColorMatrix type="matrix" values="0 0 0 0 1 0 0 0 0 1 0 0 0 0 1 0 0 0 0.3 0"></feColorMatrix><feBlend in2="shape" mode="normal" result="effect2_innerShadow_317_2303"></feBlend></filter><linearGradient id="b" gradientUnits="userSpaceOnUse" x1=".000007" x2="254.094" y1="4.15094" y2="187.13"><stop offset="0" stop-color="#fe8a04"></stop><stop offset="1" stop-color="#fe8a04" stop-opacity="0"></stop></linearGradient><g filter="url(#a)"><rect fill="#fe8a04" height="50" rx="25" shape-rendering="crispEdges" width="303" x="20" y="18"></rect><path d="m70.363 48v-9.8h8.302v9.8h-2.072v-7.91h-4.158v7.91zm13.8134.21c-.7606 0-1.435-.1703-2.023-.511s-1.05-.7933-1.386-1.358c-.3313-.5693-.497-1.1947-.497-1.876 0-.4993.0957-.973.287-1.421.1914-.4527.462-.8517.812-1.197.35-.35.763-.6253 1.239-.826s.9987-.301 1.568-.301c.7607 0 1.4327.1703 2.016.511.588.3407 1.0477.7957 1.379 1.365.336.5647.504 1.1877.504 1.869 0 .4947-.0956.9683-.287 1.421-.1913.4527-.462.854-.812 1.204-.3453.3453-.756.6183-1.232.819s-.9986.301-1.568.301zm0-1.771c.3594 0 .6814-.0793.966-.238.2847-.1633.5087-.392.672-.686.1634-.2987.245-.6487.245-1.05 0-.406-.0816-.756-.245-1.05-.1586-.294-.3803-.5203-.665-.679-.2846-.1633-.609-.245-.973-.245s-.6906.0817-.98.245c-.2846.1587-.5086.385-.672.679-.1586.294-.238.644-.238 1.05s.0817.756.245 1.05c.1634.294.3874.5227.672.686.2847.1587.609.238.973.238zm8.6883 1.771c-.7466 0-1.414-.1633-2.002-.49s-1.0523-.7723-1.393-1.337c-.336-.5647-.504-1.204-.504-1.918 0-.5367.1004-1.0313.301-1.484.2007-.4573.4807-.854.84-1.19.364-.3407.7887-.6043 1.274-.791.4854-.1867 1.0104-.28 1.575-.28.518 0 .9964.07 1.435.21.4434.14.8447.35 1.204.63l-.924 1.526c-.224-.2007-.4736-.35-.749-.448-.2706-.098-.5576-.147-.861-.147-.4246 0-.791.077-1.099.231-.3033.154-.539.378-.707.672-.1633.294-.245.6487-.245 1.064 0 .6207.182 1.106.546 1.456.3687.35.8704.525 1.505.525.3407 0 .6604-.063.959-.189.3034-.126.5717-.301.805-.525l.861 1.547c-.3873.2893-.8283.518-1.323.686-.4946.168-.994.252-1.498.252zm4.0922-.21v-7.07h1.743.042l2.9681 4.438-.875.014 2.8-4.452h1.785v7.07h-1.806l.021-4.795.399.161-2.226 3.367h-1.232l-2.3521-3.374.385-.154.035 4.795zm13.7701.21c-.76 0-1.435-.1703-2.023-.511s-1.05-.7933-1.386-1.358c-.331-.5693-.497-1.1947-.497-1.876 0-.4993.096-.973.287-1.421.192-.4527.462-.8517.812-1.197.35-.35.763-.6253 1.239-.826s.999-.301 1.568-.301c.761 0 1.433.1703 2.016.511.588.3407 1.048.7957 1.379 1.365.336.5647.504 1.1877.504 1.869 0 .4947-.095.9683-.287 1.421-.191.4527-.462.854-.812 1.204-.345.3453-.756.6183-1.232.819s-.998.301-1.568.301zm0-1.771c.36 0 .682-.0793.966-.238.285-.1633.509-.392.672-.686.164-.2987.245-.6487.245-1.05 0-.406-.081-.756-.245-1.05-.158-.294-.38-.5203-.665-.679-.284-.1633-.609-.245-.973-.245s-.69.0817-.98.245c-.284.1587-.508.385-.672.679-.158.294-.238.644-.238 1.05s.082.756.245 1.05c.164.294.388.5227.672.686.285.1587.609.238.973.238zm6.765 1.561v-5.432h-2.135v-1.638h6.307v1.638h-2.128v5.432zm5.482 2.94v-10.01h1.778v.868c.271-.322.614-.581 1.029-.777.42-.2007.917-.301 1.491-.301.682 0 1.288.1587 1.82.476.532.3127.95.7513 1.253 1.316.304.5647.455 1.2157.455 1.953 0 .5273-.088 1.0173-.266 1.47-.172.4527-.417.8493-.735 1.19-.317.3407-.693.6067-1.127.798s-.912.287-1.435.287c-.462 0-.879-.077-1.253-.231-.368-.154-.693-.371-.973-.651v3.612zm3.92-4.501c.364 0 .689-.0793.973-.238.29-.1633.514-.392.672-.686.164-.294.245-.644.245-1.05s-.081-.756-.245-1.05c-.163-.294-.387-.5203-.672-.679-.284-.1633-.609-.245-.973-.245-.359 0-.681.0817-.966.245-.284.1587-.508.385-.672.679-.163.294-.245.644-.245 1.05s.08.756.238 1.05c.164.294.388.5227.672.686.285.1587.609.238.973.238zm8.681 1.771c-.77 0-1.446-.1563-2.03-.469-.583-.3127-1.038-.749-1.365-1.309-.326-.56-.49-1.2157-.49-1.967 0-.546.094-1.0477.28-1.505.192-.4573.458-.8517.798-1.183.346-.336.749-.595 1.211-.777.467-.1867.978-.28 1.533-.28.612 0 1.153.1073 1.624.322.476.2147.871.5157 1.183.903.313.3827.53.833.651 1.351.126.518.138 1.0803.035 1.687h-5.418c0 .3267.084.6113.252.854.173.2427.413.434.721.574.313.1353.677.203 1.092.203.411 0 .803-.056 1.176-.168.374-.112.726-.2823 1.057-.511l.679 1.4c-.224.1727-.504.3267-.84.462-.336.1307-.693.231-1.071.301-.373.0747-.732.112-1.078.112zm-1.869-4.634h3.339c-.014-.4153-.161-.7443-.441-.987-.275-.2427-.655-.364-1.141-.364-.485 0-.889.1213-1.211.364-.317.2427-.499.5717-.546.987zm8.245 4.424v-5.432h-2.135v-1.638h6.307v1.638h-2.128v5.432zm5.482 0v-7.07h2.044v5.607h1.071c.411 0 .724-.0863.938-.259.215-.1727.322-.42.322-.742s-.1-.5717-.301-.749c-.196-.182-.476-.273-.84-.273h-1.414v-1.449h1.575c.957 0 1.708.2077 2.254.623.551.4153.826 1.0313.826 1.848 0 .5133-.128.9543-.385 1.323-.256.364-.62.6463-1.092.847-.466.196-1.017.294-1.652.294zm15.858 0-2.24-3.717 2.233-3.353h2.163l-2.205 3.248 2.478 3.822zm-4.606 0v-7.07h2.044v2.604h2.142v1.638h-2.142v2.828zm11.398.21c-.77 0-1.447-.1563-2.03-.469s-1.038-.749-1.365-1.309-.49-1.2157-.49-1.967c0-.546.093-1.0477.28-1.505.191-.4573.457-.8517.798-1.183.345-.336.749-.595 1.211-.777.467-.1867.978-.28 1.533-.28.611 0 1.153.1073 1.624.322.476.2147.87.5157 1.183.903.313.3827.53.833.651 1.351.126.518.138 1.0803.035 1.687h-5.418c0 .3267.084.6113.252.854.173.2427.413.434.721.574.313.1353.677.203 1.092.203.411 0 .803-.056 1.176-.168s.726-.2823 1.057-.511l.679 1.4c-.224.1727-.504.3267-.84.462-.336.1307-.693.231-1.071.301-.373.0747-.733.112-1.078.112zm-1.869-4.634h3.339c-.014-.4153-.161-.7443-.441-.987-.275-.2427-.656-.364-1.141-.364s-.889.1213-1.211.364c-.317.2427-.499.5717-.546.987zm6.782 4.424v-7.07h1.953v4.172l3.311-4.172h1.82v7.07h-1.96v-4.228l-3.318 4.228zm3.535-8.12c-.56 0-1.05-.1097-1.47-.329s-.747-.5227-.98-.91c-.229-.3873-.336-.8353-.322-1.344h1.666c-.014.3733.079.6743.28.903.201.224.476.336.826.336s.623-.112.819-.336c.201-.2287.292-.5297.273-.903h1.673c.014.4993-.096.945-.329 1.337-.233.3873-.56.693-.98.917-.42.2193-.905.329-1.456.329zm8.861 8.33c-.747 0-1.414-.1633-2.002-.49s-1.052-.7723-1.393-1.337c-.336-.5647-.504-1.204-.504-1.918 0-.5367.1-1.0313.301-1.484.201-.4573.481-.854.84-1.19.364-.3407.789-.6043 1.274-.791s1.01-.28 1.575-.28c.518 0 .996.07 1.435.21.443.14.845.35 1.204.63l-.924 1.526c-.224-.2007-.474-.35-.749-.448-.271-.098-.558-.147-.861-.147-.425 0-.791.077-1.099.231-.303.154-.539.378-.707.672-.163.294-.245.6487-.245 1.064 0 .6207.182 1.106.546 1.456.369.35.87.525 1.505.525.341 0 .66-.063.959-.189.303-.126.572-.301.805-.525l.861 1.547c-.387.2893-.828.518-1.323.686s-.994.252-1.498.252zm12.392-.21v-5.432h-2.296v.637c0 .5693-.044 1.1083-.133 1.617s-.243.9683-.462 1.379c-.219.406-.523.7513-.91 1.036-.383.28-.873.4783-1.47.595l-.42-1.414c.425-.0933.747-.2893.966-.588s.366-.672.441-1.12c.079-.4527.119-.9543.119-1.505v-2.275h6.209v7.07zm-5.691 2.1v-3.682l1.12.091.322-.147h7.714v3.738h-1.869v-2.1h-5.418v2.1zm10.569-1.946-.679-1.813c.481-.1213.831-.3033 1.05-.546s.357-.5717.413-.987c.061-.42.091-.9543.091-1.603v-2.275h6.069v7.07h-2.044v-5.432h-2.156v.637c0 .728-.042 1.372-.126 1.932-.079.56-.219 1.043-.42 1.449-.201.4013-.478.7303-.833.987s-.81.4503-1.365.581zm8.405-.154 2.534-3.71.518 1.267c-.556 0-1.043-.0887-1.463-.266s-.749-.4317-.987-.763c-.234-.3313-.35-.728-.35-1.19 0-.504.121-.9333.364-1.288.247-.3593.595-.6347 1.043-.826.452-.196.984-.294 1.596-.294h3.297v7.07h-1.946v-5.607h-1.127c-.392 0-.693.0747-.903.224-.206.1493-.308.3687-.308.658 0 .2847.093.5063.28.665.191.1587.464.238.819.238h1.449v1.4h-.952l-1.617 2.422zm15.156.21c-.76 0-1.435-.1703-2.023-.511s-1.05-.7933-1.386-1.358c-.331-.5693-.497-1.1947-.497-1.876 0-.4993.096-.973.287-1.421.192-.4527.462-.8517.812-1.197.35-.35.763-.6253 1.239-.826s.999-.301 1.568-.301c.761 0 1.433.1703 2.016.511.588.3407 1.048.7957 1.379 1.365.336.5647.504 1.1877.504 1.869 0 .4947-.095.9683-.287 1.421-.191.4527-.462.854-.812 1.204-.345.3453-.756.6183-1.232.819s-.998.301-1.568.301zm0-1.771c.36 0 .682-.0793.966-.238.285-.1633.509-.392.672-.686.164-.2987.245-.6487.245-1.05 0-.406-.081-.756-.245-1.05-.158-.294-.38-.5203-.665-.679-.284-.1633-.609-.245-.973-.245s-.69.0817-.98.245c-.284.1587-.508.385-.672.679-.158.294-.238.644-.238 1.05s.082.756.245 1.05c.164.294.388.5227.672.686.285.1587.609.238.973.238zm6.765 1.561v-5.432h-2.135v-1.638h6.307v1.638h-2.128v5.432zm8.787.21c-.77 0-1.447-.1563-2.03-.469-.584-.3127-1.039-.749-1.365-1.309-.327-.56-.49-1.2157-.49-1.967 0-.546.093-1.0477.28-1.505.191-.4573.457-.8517.798-1.183.345-.336.749-.595 1.211-.777.466-.1867.977-.28 1.533-.28.611 0 1.152.1073 1.624.322.476.2147.87.5157 1.183.903.312.3827.529.833.651 1.351.126.518.137 1.0803.035 1.687h-5.418c0 .3267.084.6113.252.854.172.2427.413.434.721.574.312.1353.676.203 1.092.203.41 0 .802-.056 1.176-.168.373-.112.725-.2823 1.057-.511l.679 1.4c-.224.1727-.504.3267-.84.462-.336.1307-.693.231-1.071.301-.374.0747-.733.112-1.078.112zm-1.869-4.634h3.339c-.014-.4153-.161-.7443-.441-.987-.276-.2427-.656-.364-1.141-.364-.486 0-.889.1213-1.211.364-.318.2427-.5.5717-.546.987zm6.697 4.578-.679-1.813c.481-.1213.831-.3033 1.05-.546.22-.2427.357-.5717.413-.987.061-.42.091-.9543.091-1.603v-2.275h6.069v7.07h-2.044v-5.432h-2.156v.637c0 .728-.042 1.372-.126 1.932-.079.56-.219 1.043-.42 1.449-.2.4013-.478.7303-.833.987-.354.2567-.809.4503-1.365.581zm12.234.056c-.77 0-1.447-.1563-2.03-.469s-1.038-.749-1.365-1.309-.49-1.2157-.49-1.967c0-.546.093-1.0477.28-1.505.191-.4573.457-.8517.798-1.183.345-.336.749-.595 1.211-.777.467-.1867.978-.28 1.533-.28.611 0 1.153.1073 1.624.322.476.2147.87.5157 1.183.903.313.3827.53.833.651 1.351.126.518.138 1.0803.035 1.687h-5.418c0 .3267.084.6113.252.854.173.2427.413.434.721.574.313.1353.677.203 1.092.203.411 0 .803-.056 1.176-.168s.726-.2823 1.057-.511l.679 1.4c-.224.1727-.504.3267-.84.462-.336.1307-.693.231-1.071.301-.373.0747-.733.112-1.078.112zm-1.869-4.634h3.339c-.014-.4153-.161-.7443-.441-.987-.275-.2427-.656-.364-1.141-.364s-.889.1213-1.211.364c-.317.2427-.499.5717-.546.987zm6.782 4.424v-7.07h1.953v4.172l3.311-4.172h1.82v7.07h-1.96v-4.228l-3.318 4.228zm3.535-8.12c-.56 0-1.05-.1097-1.47-.329s-.747-.5227-.98-.91c-.229-.3873-.336-.8353-.322-1.344h1.666c-.014.3733.079.6743.28.903.201.224.476.336.826.336s.623-.112.819-.336c.201-.2287.292-.5297.273-.903h1.673c.014.4993-.096.945-.329 1.337-.233.3873-.56.693-.98.917-.42.2193-.905.329-1.456.329z" fill="#1a1a18"></path></g><path d="m.5 44c0-24.0244 19.4756-43.5 43.5-43.5h255c24.024 0 43.5 19.4756 43.5 43.5s-19.476 43.5-43.5 43.5h-103.074-151.926c-24.0244 0-43.5-19.4756-43.5-43.5z" stroke="url(#b)"></path></svg> 